<?xml version="1.0" ?><svg id="Layer_1" style="enable-background:new 0 0 512 512;" version="1.1" viewBox="0 0 512 512" xml:space="preserve" xmlns="http://www.w3.org/2000/svg" xmlns:xlink="http://www.w3.org/1999/xlink"><style type="text/css">
	.st0{fill:#010101;}
	.st1{fill:#FFFFFF;}
	.st2{fill:#BD1F34;}
	.st3{fill:#F0C726;}
	.st4{fill:#F4D135;}
	.st5{fill:none;}
</style><g id="XMLID_1_"><rect class="st0" height="99.4" id="XMLID_248_" width="511" x="0.5" y="306"/><rect class="st1" height="99.4" id="XMLID_241_" width="511" x="0.5" y="206.6"/><rect class="st2" height="99.4" id="XMLID_234_" width="511" x="0.5" y="107.2"/><g id="XMLID_230_"><path class="st2" d="M512,207.1H0V106.7h512V207.1L512,207.1z M1,206.1H511v-98.3H1V206.1L1,206.1z" id="XMLID_231_"/></g><path class="st1" d="M253.2,303.4c9.8,0,19.1-0.8,24.6-2.3c2.3-0.4,2.3-1.6,2.3-3.2c2.3-0.8,1.1-3.5,2.7-3.5   c-1.6,0.4-2-2.7-3.9-2.3c0-2.7-2.7-3.1-5.1-2.3c-4.6,1.5-12.9,1.9-20.7,1.9c-7.8-0.4-15.9-0.4-20.7-1.9c-2.3-0.8-5.1-0.4-5.1,2.3   c-2-0.4-2.3,2.7-3.9,2.3c1.6,0,0.4,2.7,2.7,3.5c0,1.5,0,2.7,2.4,3.2C234.1,302.6,243.4,303.4,253.2,303.4L253.2,303.4z" id="XMLID_229_"/><g id="XMLID_225_"><path class="st3" d="M253.2,304.4c-10.5,0-19.5-0.9-24.8-2.4c-2.7-0.5-3-2-3.1-3.5c-1.2-0.7-1.5-1.9-1.6-2.6    c0-0.2-0.1-0.4-0.2-0.6c-0.1,0-0.2,0-0.2,0c-0.5-0.1-0.8-0.6-0.7-1.1c0.1-0.5,0.5-0.8,1-0.8c0,0,0.1,0,0.1,0.1c0,0,0.1,0,0.1,0v0    v0c0.2,0,0.6-0.5,0.8-0.7c0.5-0.6,1.1-1.4,2.1-1.6c0.5-2.3,3.3-3.3,6.2-2.3c3.7,1.2,9.8,1.5,16.2,1.7l4.2,0.2    c9.9,0,16.6-0.6,20.3-1.9c3-1,5.8,0,6.3,2.4c1.1,0.3,1.6,1,2,1.5c0.2,0.2,0.5,0.7,0.7,0.7c0.1,0,0.3,0,0.3,0c0.5,0,0.9,0.4,1,0.8    c0.1,0.5-0.2,0.9-0.7,1.1c-0.1,0-0.1,0-0.2,0c0,0-0.1,0-0.1,0v0v0c0,0,0,0,0,0c0,0,0,0.3-0.1,0.6c-0.2,0.7-0.5,1.9-1.6,2.6    c0,1.4-0.4,3-3.1,3.5C272.7,303.5,263.6,304.4,253.2,304.4L253.2,304.4z M225.3,294.8c0.1,0.2,0.2,0.5,0.2,0.7    c0.2,0.8,0.3,1.3,1,1.5c0.4,0.1,0.7,0.5,0.7,0.9c0,1.5,0,1.9,1.6,2.2c5.1,1.5,14.2,2.3,24.4,2.3c10.2,0,19.3-0.9,24.3-2.3    c1.6-0.3,1.6-0.7,1.6-2.2c0-0.4,0.3-0.8,0.7-0.9c0.7-0.2,0.8-0.7,1-1.5c0.1-0.2,0.1-0.5,0.2-0.7c-0.3-0.3-0.5-0.6-0.7-0.8    c-0.4-0.6-0.7-0.9-1-0.9c-0.3,0-0.7,0-0.9-0.2c-0.2-0.2-0.4-0.5-0.4-0.8c0-0.4,0-1.7-2-1.7c-0.6,0-1.2,0.1-1.8,0.3    c-3.9,1.3-10.8,2-21,2l-4.3-0.2c-6.5-0.2-12.7-0.5-16.7-1.8c-0.6-0.2-1.2-0.3-1.8-0.3c-2,0-2,1.3-2,1.7c0,0.3-0.1,0.6-0.4,0.8    c-0.2,0.2-0.5,0.3-0.8,0.2c-0.5,0-0.8,0.3-1.2,0.9C225.8,294.2,225.6,294.5,225.3,294.8L225.3,294.8z" id="XMLID_226_"/></g><path class="st4" d="M231,293.6c-0.8,0-0.8,0.4,0,0.4C231.3,294,231.3,293.6,231,293.6L231,293.6z" id="XMLID_224_"/><g id="XMLID_222_"><path class="st3" d="M231,294.6c-1,0-1.1-0.6-1.1-0.7c0-0.4,0.7-0.7,1.1-0.7c0.3,0,0.8,0.5,0.8,0.7    C231.7,294.1,231.3,294.6,231,294.6L231,294.6z" id="XMLID_223_"/></g><path class="st4" d="M231,292.1c-0.4,0-0.4,0.8,0,0.8C231.7,292.9,231.7,292.1,231,292.1L231,292.1z" id="XMLID_221_"/><g id="XMLID_219_"><path class="st3" d="M231,293.4c-0.3,0-0.8-0.6-0.8-0.9c0-0.3,0.6-0.9,0.8-0.9c0.7,0,1.1,0.5,1.1,0.9    C232.1,292.9,231.7,293.4,231,293.4L231,293.4z" id="XMLID_220_"/></g><path class="st4" d="M231,297.9c-0.4,0-0.4,0.8,0,0.8C231.3,298.7,231.3,297.9,231,297.9L231,297.9z" id="XMLID_218_"/><g id="XMLID_216_"><path class="st3" d="M231,299.2c-0.3,0-0.8-0.6-0.8-0.9c0-0.3,0.6-0.9,0.8-0.9c0.3,0,0.8,0.6,0.8,0.9    C231.7,298.6,231.3,299.2,231,299.2L231,299.2z" id="XMLID_217_"/></g><path class="st4" d="M232.5,298.3c-0.8,0-0.8,0.8,0,0.8C232.9,299.1,232.9,298.3,232.5,298.3L232.5,298.3z" id="XMLID_215_"/><g id="XMLID_213_"><path class="st3" d="M232.5,299.6c-0.7,0-1.1-0.5-1.1-0.9c0-0.5,0.6-0.9,1.1-0.9c0.3,0,0.8,0.6,0.8,0.9    C233.3,299.1,232.9,299.6,232.5,299.6L232.5,299.6z" id="XMLID_214_"/></g><path class="st4" d="M234.1,298.7c-0.3,0-0.3,0.8,0,0.8C234.8,299.5,234.8,298.7,234.1,298.7L234.1,298.7z" id="XMLID_212_"/><g id="XMLID_210_"><path class="st3" d="M234.1,300c-0.3,0-0.8-0.6-0.8-0.9c0-0.3,0.5-0.9,0.8-0.9c0.7,0,1.1,0.5,1.1,0.9    C235.2,299.5,234.8,300,234.1,300L234.1,300z" id="XMLID_211_"/></g><path class="st4" d="M258.2,294.8c-0.4,0-0.4,0.8,0,0.8C258.6,295.6,258.6,294.8,258.2,294.8L258.2,294.8z" id="XMLID_209_"/><g id="XMLID_207_"><path class="st3" d="M258.2,296.1c-0.3,0-0.8-0.6-0.8-0.9c0-0.3,0.5-0.9,0.8-0.9c0.3,0,0.8,0.6,0.8,0.9    C259.1,295.5,258.5,296.1,258.2,296.1L258.2,296.1z" id="XMLID_208_"/></g><path class="st4" d="M258.6,296.4c-0.8,0-0.8,0.4,0,0.4C259,296.7,259,296.4,258.6,296.4L258.6,296.4z" id="XMLID_206_"/><g id="XMLID_204_"><path class="st5" d="M258.6,296.4c-0.8,0-0.8,0.4,0,0.4C259,296.7,259,296.4,258.6,296.4z" id="XMLID_205_"/></g><path class="st4" d="M259.8,300.2c-0.4,0-0.4,0.8,0,0.8C260.2,301.1,260.2,300.2,259.8,300.2L259.8,300.2z" id="XMLID_203_"/><g id="XMLID_201_"><path class="st3" d="M259.8,301.6c-0.3,0-0.8-0.7-0.8-0.9c0-0.3,0.5-0.9,0.8-0.9c0.3,0,0.8,0.7,0.8,0.9    C260.6,300.9,260.1,301.6,259.8,301.6L259.8,301.6z" id="XMLID_202_"/></g><path class="st4" d="M261.4,300.2c-0.8,0-0.8,0.8,0,0.8C261.7,301.1,261.7,300.2,261.4,300.2L261.4,300.2z" id="XMLID_200_"/><g id="XMLID_198_"><path class="st3" d="M261.4,301.6c-0.8,0-1.2-0.5-1.2-0.9c0-0.5,0.4-0.9,1.2-0.9c0.3,0,0.8,0.7,0.8,0.9    C262.2,301.1,261.8,301.6,261.4,301.6L261.4,301.6z" id="XMLID_199_"/></g><path class="st4" d="M277.3,297.1c-0.8,0-0.8,0.4,0,0.4C277.8,297.6,277.8,297.1,277.3,297.1L277.3,297.1z" id="XMLID_197_"/><g id="XMLID_195_"><path class="st3" d="M277.3,298.1c-1,0-1.1-0.6-1.1-0.7c0-0.4,0.7-0.7,1.1-0.7c0.3,0,0.8,0.4,0.8,0.7    C278.2,297.6,277.6,298.1,277.3,298.1L277.3,298.1z" id="XMLID_196_"/></g><g id="XMLID_193_"><path class="st3" d="M235.2,298.6c-0.3,0-0.6-0.1-0.9-0.2c-0.4-0.1-0.9-0.2-1.2-0.5c-0.4,0-0.7-0.1-1.2-0.3    c-0.4,0-1.1-0.6-1.1-1.7c0.4-0.8,0.6-1.9,0.9-3l0.3-1c0.1-0.3,0.3-0.4,0.6-0.4c0.3,0.1,0.4,0.4,0.4,0.6l-0.3,1    c-0.3,1.3-0.6,2.3-1,3c0.1,0.2,0.3,0.4,0.3,0.4c0.3,0.1,0.6,0.2,0.8,0.2c0-0.2,0.1-0.5,0.2-0.7c0.1-0.8,0.2-1.1,0.5-1.2    c0.1,0.1,0.2,0.3,0.3,0.6l0.3,0.2c0,0,0,0.2-0.1,0.4c0,0.1,0,0.1,0,0.1c-0.1,0.4-0.2,0.8-0.3,1c0.1,0,0.2,0.1,0.7,0.2    c0.3,0.1,0.6,0.2,0.7,0.1c0.2-0.1,0.4-0.5,0.5-1.3l0.2,0.1l-0.5-0.6c0.1-0.2,0.6-0.4,0.8-0.3c0.2,0.1,0.6,0.7,0.6,1    c-0.2,0.9-0.4,1.7-1.1,2.1C235.6,298.5,235.4,298.6,235.2,298.6L235.2,298.6z" id="XMLID_194_"/></g><g id="XMLID_191_"><path class="st3" d="M232.1,297.7c0,0-0.1,0-0.1,0c-1.2-0.3-1.9-1-1.9-1.7c0-0.4,0.3-1,1.6-1.3    c0.3,0,0.6,0.1,0.6,0.4c0.1,0.3-0.1,0.6-0.4,0.6c-0.7,0.1-0.8,0.3-0.8,0.3c0,0.1,0.4,0.4,1.1,0.6c0.3,0.1,0.4,0.4,0.4,0.6    C232.5,297.5,232.3,297.7,232.1,297.7L232.1,297.7z" id="XMLID_192_"/></g><g id="XMLID_189_"><path class="st3" d="M243.3,300.8c-0.2,0-0.6-0.1-0.7-0.3c-0.1,0.2-0.9,0-0.9-1.5c-0.2,0-0.6-0.1-0.9-0.3    c-1,0.4-2.1,0.5-2.8,0.3c-0.3,0.4-0.6,0.7-1,0.9c-0.3,0.1-0.6,0-0.7-0.3c-0.1-0.3,0-0.6,0.3-0.7c0.3-0.1,0.5-0.3,0.7-0.6    c-0.1-0.2-0.2-0.5-0.2-0.8c-0.1-0.2-0.3-0.7,0-1.1c0.9-0.2,1.2,0.2,1.4,0.9c0,0.2,0,0.5-0.1,0.7c0.3,0.1,0.9,0.1,1.6-0.1    c-0.5-0.5-0.5-1.2-0.2-1.7c0.3-0.7,1.1-1,1.9-0.8c0.6,0.3,1,0.9,0.9,1.6c0,0.5-0.3,1-0.7,1.3c0.2,0.1,0.4,0.2,0.6,0.4    c0.3,1.1,0.4,1.1,0.5,1.1h0c0.2,0,0.6-0.7,0.6-1.4v-3.5c0-0.6,1-0.6,1,0v3.5c0,1-0.5,2.2-1.2,2.5    C243.4,300.8,243.4,300.8,243.3,300.8L243.3,300.8z" id="XMLID_190_"/></g><g id="XMLID_187_"><path class="st3" d="M245.4,299.6c-0.3,0-0.5-0.2-0.5-0.5c0-0.6,0.1-1.5,0.2-2.3c0.1-0.7,0.2-1.5,0.2-2    c0-0.6,1-0.6,1,0c0,0.6-0.1,1.4-0.2,2.1c-0.1,0.8-0.2,1.5-0.2,2.1C245.9,299.4,245.7,299.6,245.4,299.6L245.4,299.6z" id="XMLID_188_"/></g><g id="XMLID_183_"><path class="st3" d="M246.6,301.9c-0.2,0-0.3-0.1-0.4-0.2c-0.2-0.2-0.1-0.6,0.1-0.7c0.8-0.6,1.1-1.1,1.2-1.5    c-0.2-0.2-0.4-0.3-0.6-0.5c-0.3-0.5-0.3-0.9-0.1-1.2c0.1-0.2,0.5-0.3,0.7-0.3c0.4,0.1,0.8,0.4,1,1.1c0,0.1,0,0.3,0,0.4    c0.1,0,0.2,0,0.3,0c0,0,0.2-0.1,0.2-0.8c-0.2-0.1-0.3-0.3-0.3-0.6c0-0.3,0.4-0.8,0.7-0.8c0.2,0,0.6,0.4,0.7,0.7c0.2,0,0.4,0,0.7,0    c0.9,0.4,2.4,0.4,2.7,0.2c0.9-0.2,1.3,0.5,1.3,1.6c0,0.1-0.2,0.7-0.3,0.8c-0.3,0.7-0.5,1.2-1,1.3c-0.5,0-0.9-0.3-1.2-0.6    c-0.1-0.5-0.1-0.6-0.8-0.6h-2.7c-0.2,0-0.3,0-0.4,0c-0.2,0.6-0.6,1.2-1.6,1.9C246.8,301.9,246.7,301.9,246.6,301.9L246.6,301.9z     M250,298.9h1.6c1.4,0,1.6,0.8,1.6,1.3c0,0,0.4-0.8,0.4-0.8c0.1-0.4,0.1-0.6,0.1-0.8c-0.9,0.3-2.5,0.2-3.2-0.2c-0.1,0-0.3,0-0.5,0    C250.1,298.6,250.1,298.8,250,298.9L250,298.9z" id="XMLID_184_"/></g><g id="XMLID_181_"><path class="st3" d="M255.9,300c-0.1,0-0.2,0-0.3-0.1c-0.3-0.1-0.6,0-0.7,0c-0.3,0-0.8-0.2-0.8-0.5    c0-0.3,0-0.5,0.3-0.5v0.5l0.3-0.6c0.2,0,0.4-0.1,0.6-0.1c0-0.6,0.2-0.9,0.3-1.1c0.3-0.3,0.8-0.4,1.3-0.2c0.5,0.2,0.8,0.7,0.8,1.2    C257.6,299.5,256.4,300,255.9,300C255.9,300,255.9,300,255.9,300L255.9,300z" id="XMLID_182_"/></g><g id="XMLID_179_"><path class="st3" d="M259,299.9c-0.2,0-0.3,0-0.4-0.1c-0.2-0.1-0.5-0.5-0.5-0.7c0.4-0.7,0.9-1,1.4-1.1    c0.1-0.8,0-2-0.3-3.1c-0.1-0.3,0.1-0.6,0.4-0.6c0.3-0.1,0.6,0.1,0.6,0.4c0.3,1.1,0.4,2.5,0.3,3.6c0.1,0,0.8,0.3,0.8,0.3    c0.4,0,0.5-0.2,0.6-0.9c-0.2-0.3-0.5-0.8-0.4-1c0.1-0.2,0.5-0.4,0.8-0.4c0.2,0,0.7,0.5,0.7,0.8c0,0.1,0,0.2,0,0.4    c0,0.1,0,0.1,0,0.2c-0.1,1.5-0.5,2-1.6,2c-0.5,0.3-1,0.1-1.3,0c0,0,0,0-0.1-0.1C259.7,299.8,259.4,299.9,259,299.9L259,299.9z" id="XMLID_180_"/></g><g id="XMLID_177_"><path class="st3" d="M263.7,301.2c-0.1,0-0.3-0.1-0.4-0.2c-0.2-0.2-0.2-0.5,0-0.7c0.4-0.4,0.7-0.9,0.9-1.3    c-0.9-0.5-1-1.1-1-1.4c0-0.2,0-0.9,0.5-1.1c0.6-0.2,1,0.2,1.5,0.8c0.6,1.2-0.3,2.9-1.1,3.8C264,301.1,263.8,301.2,263.7,301.2    L263.7,301.2z" id="XMLID_178_"/></g><g id="XMLID_175_"><path class="st3" d="M266.4,300.4c-0.2,0-0.4-0.1-0.5-0.3c-0.1-0.3,0-0.6,0.3-0.7c0.4-0.1,0.6-0.3,0.7-0.5    c-0.8,0.1-1.1-0.3-1.2-0.7c-0.1-0.5,0.2-1.1,0.8-1.4c0.1-0.1,0.7-0.2,0.9-0.2c0.4,0.2,0.6,0.6,0.7,1.3c1.4-0.2,3.3-0.7,4.7-1.5    c0.2-0.2,0.6-0.1,0.7,0.2c0.1,0.2,0.1,0.6-0.2,0.7c-1.7,1-3.8,1.5-5.3,1.6c-0.1,0.6-0.4,1.2-1.4,1.6    C266.6,300.4,266.5,300.4,266.4,300.4L266.4,300.4z" id="XMLID_176_"/></g><g id="XMLID_173_"><path class="st3" d="M271.1,298.9c-0.2,0-0.4,0-0.6-0.1c-0.3-0.4-0.5-0.9-0.7-1.5c-0.1,0.2-0.1,0.4-0.1,0.6    c0,0.6-1,0.6-1,0c0-0.8,0.3-1.5,0.8-1.8c0-0.1,0-0.2-0.1-0.3l-0.4-1.6c-0.1-0.3,0.1-0.6,0.4-0.6c0.3-0.1,0.6,0.1,0.6,0.4l0.4,1.6    c0,0.1,0,0.1,0,0.2c0.2,0,0.6,0,0.9,0.1c0.6,0.2,1,0.8,1,1.3c0.2,0.3,0.2,0.9-0.2,1.4C271.9,298.8,271.5,298.9,271.1,298.9    L271.1,298.9z" id="XMLID_174_"/></g><g id="XMLID_171_"><path class="st3" d="M274,297.8c-0.7,0-1.2-0.3-1.4-0.9c-0.1-0.1,0-0.8,0.1-0.9c0.6-1,2.4-1.1,3.1-0.4    c0.3,0.6,0.2,1.1-0.1,1.4C275.3,297.5,274.7,297.8,274,297.8L274,297.8z" id="XMLID_172_"/></g><g id="XMLID_169_"><path class="st5" d="M275.4,296.4c0,0,0.8-0.4,1.2-0.8L275.4,296.4z" id="XMLID_170_"/></g><g id="XMLID_167_"><path class="st3" d="M277.2,296.5c-0.3,0-0.5-0.1-0.6-0.2c-0.9-0.5-1.3-1.7-1.3-3.5c0-0.4-0.1-0.6-0.3-0.7    c-0.3-0.1-0.8,0-1.1,0.3c-0.2,0.2-0.5,0.2-0.7,0c-0.2-0.2-0.2-0.5,0-0.7c0.6-0.6,1.5-0.8,2.2-0.5c0.6,0.3,1,0.9,1,1.7    c0,1.6,0.4,2.4,0.8,2.6c0.1,0.1,0.3,0.1,0.5,0c0,0,0-0.1,0-0.1c0.1-0.2,0.7-0.8,0.9-0.7c0.2,0.1,0.5,0.7,0.5,1    C278.3,296.3,277.7,296.5,277.2,296.5L277.2,296.5z" id="XMLID_168_"/></g><g id="XMLID_165_"><path class="st5" d="M239.5,296.7h0.8H239.5z" id="XMLID_166_"/></g><g id="XMLID_163_"><path class="st5" d="M242.3,297.1h0.4H242.3z" id="XMLID_164_"/></g><path class="st1" d="M253.6,258.6l33.5,31.1l-2.4-56.6c-0.4-8.6-7.8-6.6-13.2-3.5c-5.5,3.5-11.7,3.5-18.3,1.2   c-6.6,2.3-12.8,2.3-18.3-1.2c-5.4-3.1-12.9-5.1-13.2,3.5l-2.4,56.6L253.6,258.6z" id="XMLID_162_"/><g id="XMLID_158_"><path class="st3" d="M219.2,290.3c-0.1,0-0.1,0-0.2-0.1c-0.2-0.1-0.3-0.3-0.3-0.5l2.4-56.6    c0.2-5.5,3.3-6.6,5.8-6.6c3,0,6.5,1.7,8.2,2.7c5,3.2,11,3.6,17.9,1.2c7.7,2.4,13.3,2.1,18.2-1.1c1.8-1,5.2-2.7,8.2-2.7    c2.5,0,5.5,1.2,5.8,6.6l2.4,56.6c0,0.2-0.1,0.4-0.3,0.5c-0.2,0.1-0.4,0.1-0.6-0.1l-33.2-30.8l-34,30.8    C219.5,290.2,219.4,290.3,219.2,290.3L219.2,290.3z M226.9,227.6c-3,0-4.6,1.9-4.7,5.7l-2.3,55.3l33.4-30.3c0.2-0.2,0.5-0.2,0.7,0    l32.6,30.3l-2.3-55.3c-0.3-6.4-5.3-7.2-12.4-3.1c-5.2,3.3-11.6,3.8-18.8,1.2c-6.4,2.5-13.2,2.1-18.4-1.2    C231.7,228.5,228.9,227.6,226.9,227.6L226.9,227.6z" id="XMLID_159_"/></g><path class="st1" d="M258.6,232.8c1.9,1.1,3.9,1.1,5.1,1.1c-3.9-2.7-5.1-10.1-4.7-13.2c0.8-6.3-0.8-9.8-4.6-10.5   c-0.8,0-1.2-0.4-2.7-0.4c-1.2-0.3-2.1,0.8-2.5,1.5c-1.2-0.8-2.2-0.4-3.3-1.1c-1.2-0.4-3.2,0-3.2,2.7l0.8-0.3c0.4,0.1,1,0.4,1.8,0.9   c1,0.8,2.5,1.4,2.9,4.1c0.8,5.8,0,11.3-5.5,16.4c1.2,0,3.2,0,5.1-1.1c-0.8,1.1-1.1,1.5-1.9,2.3c2.3-0.4,4.3-1.2,5.4-3.1   c0.4,0.8,1.5,1.9,2,2.7c0.4-0.8,1.5-1.9,2-2.7c1.1,1.9,3.1,2.7,5.4,3.1C259.8,234.4,259.4,234,258.6,232.8L258.6,232.8z" id="XMLID_157_"/><g id="XMLID_153_"><path class="st3" d="M244.3,235.9l1.1-1.1c0.3-0.3,0.5-0.5,0.7-0.8c-1.4,0.4-2.7,0.4-3.6,0.4h-1.2l0.9-0.8    c4.6-4.3,6.2-9.1,5.3-15.9c-0.3-2.1-1.3-2.7-2.2-3.4l-0.6-0.4c-0.8-0.4-1.3-0.7-1.6-0.8l-1.2,0.6V213c0-3.1,2.3-3.8,3.8-3.2    c0.6,0.4,1,0.5,1.6,0.5c0.4,0.1,0.9,0.1,1.4,0.4c0.4-0.6,1.2-1.4,2.2-1.4c1.4,0.1,2,0.2,2.4,0.3c0.3,0.1,0.5,0.1,0.8,0.1    c4.2,0.8,5.9,4.6,5.1,11.1c-0.4,3.2,0.8,10.2,4.5,12.7l1.3,0.9h-1.5c-0.9,0-2.2,0-3.6-0.4c0.2,0.3,0.4,0.5,0.7,0.8l1.1,1.1    l-1.5-0.3c-1.8-0.3-3.9-0.9-5.3-2.7c-0.2,0.2-0.4,0.5-0.6,0.8c-0.4,0.4-0.7,0.9-0.9,1.3l-0.4,0.8l-0.4-0.8    c-0.2-0.4-0.6-0.8-0.9-1.3c-0.2-0.3-0.4-0.5-0.6-0.8c-1.4,1.8-3.5,2.4-5.3,2.7L244.3,235.9L244.3,235.9z M255.1,231.1l0.4,0.7    c0.7,1.2,1.8,2,3.6,2.5c-0.3-0.3-0.5-0.7-0.9-1.2l0.6-0.7c1.2,0.7,2.4,0.9,3.4,1c-3.3-3.3-4.2-9.8-3.8-12.7c0.7-6-0.6-9.3-4.2-10    c-0.3,0.2-0.6-0.1-0.9-0.2c-0.4-0.1-0.9-0.2-1.8-0.2c-1.2,0-1.8,1-2,1.3l-0.3,0.5l-0.4-0.3c-0.5-0.3-1-0.4-1.5-0.5    c-0.6-0.1-1.2-0.2-1.8-0.6c-0.3-0.1-1.9-0.6-2.3,1.6l0,0c0.7,0,1.2,0.3,1.9,0.7l0.9,0.6c1,0.7,2.2,1.5,2.6,4    c0.6,4.6,0.6,10.4-4.7,15.9c1-0.1,2.3-0.3,3.6-1l0.6,0.7c-0.4,0.5-0.6,0.9-0.9,1.2c1.8-0.5,2.9-1.3,3.6-2.5l0.4-0.7l0.4,0.8    c0.2,0.4,0.6,0.8,0.9,1.3c0.2,0.3,0.4,0.5,0.6,0.8c0.2-0.2,0.4-0.5,0.6-0.8c0.4-0.4,0.7-0.9,0.9-1.3L255.1,231.1L255.1,231.1z" id="XMLID_154_"/></g><g id="XMLID_151_"><path class="st3" d="M258.9,233.7c-0.2,0-0.4-0.1-0.5-0.3c-1.1-2.2-2.3-4.7-2.3-8c0-0.6,1-0.6,1,0    c0,3.1,1,5.3,2.1,7.6c0.1,0.3,0,0.6-0.2,0.7C259,233.7,259,233.7,258.9,233.7L258.9,233.7z" id="XMLID_152_"/></g><g id="XMLID_149_"><path class="st3" d="M255.1,232.6c-0.2,0-0.3-0.1-0.4-0.2c-0.8-1.3-1.3-3.7-1.3-7c0-0.6,1-0.6,1,0    c0,3,0.4,5.3,1.1,6.4c0.2,0.2,0.1,0.6-0.2,0.7C255.3,232.6,255.2,232.6,255.1,232.6L255.1,232.6z" id="XMLID_150_"/></g><g id="XMLID_147_"><path class="st3" d="M247.4,233.7c-0.1,0-0.2,0-0.2-0.1c-0.3-0.1-0.4-0.4-0.2-0.7c1.1-2.1,2.1-4.4,2.1-7.6    c0-0.6,1-0.6,1,0c0,3.4-1.1,5.8-2.3,8C247.8,233.6,247.6,233.7,247.4,233.7L247.4,233.7z" id="XMLID_148_"/></g><g id="XMLID_145_"><path class="st3" d="M251.2,232.6c-0.1,0-0.2,0-0.3-0.1c-0.2-0.2-0.3-0.5-0.2-0.7c0.7-1.1,1.1-3.4,1.1-6.4    c0-0.6,1-0.6,1,0c0,3.2-0.4,5.6-1.3,7C251.5,232.5,251.4,232.6,251.2,232.6L251.2,232.6z" id="XMLID_146_"/></g><path class="st3" d="M242.9,212.6c0.8,0.1,1.2,0.3,2.3,0.9c0.8,0.4,2.5,1.4,2.9,3.7c-0.4-1.2,0.4-2.4,1.2-2   C248.1,212.5,244.4,211.8,242.9,212.6L242.9,212.6z" id="XMLID_144_"/><g id="XMLID_140_"><path class="st3" d="M248.1,217.5c-0.1,0-0.2-0.1-0.2-0.2c0,0,0,0,0,0l0,0c0-0.1-0.1-0.3-0.1-0.5v0    c-0.5-1.9-2-2.7-2.7-3.1l-0.4-0.5l-0.1,0.2c-0.7-0.4-1-0.6-1.7-0.6c0.3-0.7,0.9-0.8,1.5-0.8c1.8,0,4.2,1,5.2,3.1    c0,0.1-0.1,0.1-0.2,0.2c0,0.1-0.3,0.1-0.4,0.1c0,0,0,0,0,0c-0.6,0.5-0.8,0.9-0.7,1.3c0,0.1,0,0.1,0,0.2c0.1,0.1,0.1,0.2,0.1,0.3    C248.4,217.3,248.3,217.4,248.1,217.5C248.1,217.5,248.1,217.5,248.1,217.5L248.1,217.5z M243.7,212.6c0.3,0,0.6,0.2,1,0.4    l0.6,0.3c0.6,0.4,1.9,1,2.6,2.5c0.1-0.2,0.2-0.3,0.3-0.5c0.2-0.2,0.5-0.4,0.8-0.4C248.1,213.2,245.4,212.3,243.7,212.6    L243.7,212.6z" id="XMLID_141_"/></g><polygon class="st3" id="XMLID_139_" points="254.7,264.8 259.4,286.2 257.9,287.8 256.3,286.6 253.6,267.5 254.7,286.6    253.2,288.6 251.6,286.6 252.7,267.5 250.1,286.6 248.5,287.8 246.9,286.2 251.6,264.8  "/><g id="XMLID_134_"><path class="st3" d="M253.2,289.3l-1.9-2.4l0.5-9.2l-1.3,9l-1.8,1.5l-2.1-1.6l4.6-21.8l3.5-0.3l5.1,21.8l-1.7,2    L256,287l-1.4-9.4l0.5,9L253.2,289.3L253.2,289.3z M253.2,267.8l-1.1,18.8l1.1,1.3l1.2-1.5L253.2,267.8L253.2,267.8z M254.3,264.9    l-2.7,0.3l-4.3,21.1l1.4,1.1l1-1.2l2.5-18.8l0.9,0.1l0.9-0.1l2.7,19.1l1.4,0.9l1-1.5L254.3,264.9L254.3,264.9z" id="XMLID_135_"/></g><path class="st3" d="M225.5,231.2l-2.3,55l-3.9,3.5l2.4-56.6C222.7,232.4,224.7,231.2,225.5,231.2L225.5,231.2z" id="XMLID_133_"/><path class="st3" d="M230.2,235.2l-2,46l-3.9,4l2.4-53.1C227.5,232.8,229.8,234.7,230.2,235.2L230.2,235.2z" id="XMLID_132_"/><path class="st3" d="M234.5,238.7l-1.5,38.4l-3.2,3.1l2-43.8C232.5,237.1,234.1,238.3,234.5,238.7L234.5,238.7z" id="XMLID_131_"/><path class="st3" d="M239.1,240.6l-1.5,32.7l-3.1,2.5l1.5-36.4C236.8,239.8,238.3,240.6,239.1,240.6L239.1,240.6z" id="XMLID_130_"/><path class="st3" d="M243.4,240.6l-1.1,27.3l-3.2,3.1l1.2-30C241.1,241,243,241,243.4,240.6L243.4,240.6z" id="XMLID_129_"/><path class="st3" d="M280.8,231.2l2.3,55l3.9,3.5l-2.4-56.6C283.6,232.4,281.6,231.2,280.8,231.2L280.8,231.2z" id="XMLID_128_"/><path class="st3" d="M276.1,235.2l2,46l3.9,3.4l-2.4-52.6C278.9,232.8,276.6,234.7,276.1,235.2L276.1,235.2z" id="XMLID_127_"/><path class="st3" d="M271.9,238.7l1.6,38.4l3.1,2.5l-2-43.2C273.8,237.1,272.3,238.3,271.9,238.7L271.9,238.7z" id="XMLID_126_"/><path class="st3" d="M267.2,240.6l1.5,32.1l3.1,2.5l-1.5-35.8C269.5,239.8,268,240.6,267.2,240.6L267.2,240.6z" id="XMLID_125_"/><path class="st3" d="M262.9,240.6l1.1,27.3l3.2,3.1l-1.2-30C265.2,241,263.3,241,262.9,240.6L262.9,240.6z" id="XMLID_124_"/><polygon class="st1" id="XMLID_123_" points="242.6,255.4 233.3,288.6 246.1,290.5 251.6,265.6  "/><g id="XMLID_119_"><path class="st3" d="M246.1,291C246.1,291,246.1,291,246.1,291l-12.9-2c-0.1,0-0.3-0.1-0.3-0.2    c-0.1-0.1-0.1-0.3-0.1-0.4l9.3-33.2c0-0.2,0.2-0.3,0.4-0.3c0.2,0,0.4,0,0.5,0.1l9,10.2l-5.4,25.4C246.6,290.9,246.4,291,246.1,291    L246.1,291z M233.9,288.2l11.9,1.8l5.4-24.5l-8.3-9.1L233.9,288.2L233.9,288.2z" id="XMLID_120_"/></g><polygon class="st1" id="XMLID_118_" points="263.7,255.4 273,288.6 260.2,290.5 254.7,265.6  "/><g id="XMLID_114_"><path class="st3" d="M260.2,291c-0.2,0-0.4-0.2-0.5-0.4l-5.5-24.9l9.1-10.6c0.1-0.1,0.3-0.2,0.5-0.1    c0.2,0,0.3,0.2,0.4,0.3l9.3,33.2c0,0.1,0,0.3-0.1,0.4c-0.1,0.1-0.2,0.2-0.3,0.2L260.2,291C260.2,291,260.2,291,260.2,291    L260.2,291z M263.5,256.4l-8.4,9.5l5.5,24.1l11.9-1.8L263.5,256.4L263.5,256.4z" id="XMLID_115_"/></g><g id="XMLID_112_"><path class="st3" d="M240.7,270C240.6,270,240.6,270,240.7,270c-0.3,0-0.4-0.2-0.5-0.3l-1.1-2.7    c-0.1-0.3,0-0.6,0.3-0.7c0.3-0.1,0.6,0,0.7,0.3l0.8,2l3-3.3c0.2-0.2,0.5-0.2,0.7,0c0.2,0.2,0.2,0.5,0,0.7l-3.5,3.9    C240.9,269.9,240.8,270,240.7,270L240.7,270z" id="XMLID_113_"/></g><g id="XMLID_110_"><path class="st3" d="M245,272.3c0,0-0.1,0-0.1,0c-0.2-0.1-0.4-0.2-0.4-0.4l-1.2-10.9c0-0.3,0.2-0.5,0.5-0.6    c0.3,0,0.5,0.2,0.6,0.5l1.1,9.6l3.1-4c0.2-0.2,0.5-0.3,0.7-0.1c0.2,0.2,0.3,0.5,0.1,0.7l-3.9,5.1    C245.3,272.2,245.2,272.3,245,272.3L245,272.3z" id="XMLID_111_"/></g><g id="XMLID_108_"><path class="st3" d="M249.6,275c-0.2,0-0.4-0.1-0.5-0.3l-2.3-5.8c-0.1-0.3,0-0.6,0.3-0.7c0.3-0.1,0.6,0,0.7,0.3    l2.3,5.8c0.1,0.3,0,0.6-0.3,0.7C249.8,275,249.7,275,249.6,275L249.6,275z" id="XMLID_109_"/></g><g id="XMLID_106_"><path class="st3" d="M246.1,279.7c0,0-0.1,0-0.1,0c-0.2,0-0.3-0.2-0.4-0.3l-1.6-5.1l-1.3,2.4    c-0.1,0.2-0.3,0.4-0.5,0.3c-0.2,0-0.4-0.1-0.5-0.3l-1.3-3.2l-2.9,2.6c-0.2,0.2-0.5,0.2-0.7,0c-0.2-0.2-0.2-0.5,0-0.7l3.4-3.1    c0.1-0.1,0.3-0.2,0.5-0.1c0.2,0,0.3,0.1,0.4,0.3l1.2,2.9l1.4-2.6c0.1-0.2,0.4-0.3,0.5-0.3c0.2,0,0.4,0.2,0.4,0.4l1.7,5.4l2.5-2.6    c0.2-0.2,0.5-0.2,0.7,0c0.2,0.2,0.2,0.5,0,0.7l-3.2,3.2C246.4,279.7,246.3,279.7,246.1,279.7L246.1,279.7z" id="XMLID_107_"/></g><g id="XMLID_104_"><path class="st3" d="M247.3,286.8c-0.2,0-0.5-0.2-0.5-0.4l-1-4.8l-2.4,3.1c-0.1,0.1-0.3,0.2-0.5,0.2    c-0.2,0-0.3-0.2-0.4-0.3l-1.2-3.8l-2.1,2.7c-0.1,0.1-0.3,0.2-0.5,0.2c-0.2,0-0.3-0.1-0.4-0.3l-2.4-5.8c-0.1-0.3,0-0.6,0.3-0.7    c0.3-0.1,0.6,0,0.7,0.3l2.1,5l2.2-2.8c0.1-0.1,0.3-0.2,0.5-0.2c0.2,0,0.3,0.2,0.4,0.3l1.2,3.8l2.5-3.2c0.1-0.2,0.3-0.2,0.5-0.2    c0.2,0,0.3,0.2,0.4,0.4l1.2,5.9c0.1,0.3-0.1,0.6-0.4,0.6C247.4,286.8,247.4,286.8,247.3,286.8L247.3,286.8z" id="XMLID_105_"/></g><g id="XMLID_102_"><path class="st3" d="M244.2,291.1c0,0-0.1,0-0.1,0c-0.2,0-0.3-0.2-0.3-0.3l-1.2-3.6l-1.7,2.9    c-0.1,0.2-0.3,0.4-0.5,0.3c-0.2,0-0.4-0.1-0.4-0.3l-1.6-4.2l-1.8,2.4c-0.2,0.2-0.5,0.3-0.7,0.1c-0.2-0.2-0.3-0.5-0.1-0.7l2.3-3.2    c0.1-0.2,0.3-0.2,0.5-0.2c0.2,0,0.3,0.1,0.4,0.3l1.6,4.1l1.8-3c0.1-0.2,0.3-0.3,0.5-0.3c0.2,0,0.4,0.2,0.4,0.4l1.3,4l1.8-1.5    c0.2-0.2,0.6-0.1,0.7,0.1c0.2,0.2,0.2,0.5-0.1,0.7l-2.4,2C244.4,291,244.3,291.1,244.2,291.1L244.2,291.1z" id="XMLID_103_"/></g><g id="XMLID_100_"><path class="st3" d="M265.7,270c-0.1,0-0.3-0.1-0.4-0.2l-3.5-3.9c-0.2-0.2-0.2-0.5,0-0.7c0.2-0.2,0.5-0.2,0.7,0    l3,3.3l0.8-2c0.1-0.3,0.4-0.4,0.7-0.3c0.3,0.1,0.4,0.4,0.3,0.7l-1.1,2.7C266.1,269.8,265.9,269.9,265.7,270    C265.7,270,265.7,270,265.7,270L265.7,270z" id="XMLID_101_"/></g><g id="XMLID_98_"><path class="st3" d="M261.4,272.3c-0.2,0-0.3-0.1-0.4-0.2L257,267c-0.2-0.2-0.1-0.6,0.1-0.7    c0.2-0.2,0.5-0.1,0.7,0.1l3.1,4l1-9.6c0-0.3,0.3-0.5,0.6-0.5c0.3,0,0.5,0.3,0.5,0.6l-1.1,10.9c0,0.2-0.2,0.4-0.4,0.4    C261.5,272.3,261.4,272.3,261.4,272.3L261.4,272.3z" id="XMLID_99_"/></g><g id="XMLID_96_"><path class="st3" d="M256.7,275c-0.1,0-0.1,0-0.2,0c-0.3-0.1-0.4-0.4-0.3-0.7l2.3-5.8c0.1-0.3,0.4-0.4,0.7-0.3    c0.3,0.1,0.4,0.4,0.3,0.7l-2.3,5.8C257.1,274.9,256.9,275,256.7,275L256.7,275z" id="XMLID_97_"/></g><g id="XMLID_94_"><path class="st3" d="M260.2,279.7c-0.1,0-0.3-0.1-0.4-0.2l-3.1-3.2c-0.2-0.2-0.2-0.5,0-0.7c0.2-0.2,0.5-0.2,0.7,0    l2.4,2.5l1.3-5.3c0-0.2,0.2-0.4,0.4-0.4c0.2,0,0.4,0.1,0.5,0.2l1.8,2.7l1.2-3c0.1-0.2,0.2-0.3,0.4-0.3c0.2,0,0.3,0,0.5,0.1    l3.5,3.1c0.2,0.2,0.2,0.5,0,0.7c-0.2,0.2-0.5,0.2-0.7,0l-3-2.6l-1.3,3.2c-0.1,0.2-0.2,0.3-0.4,0.3c-0.2,0-0.4-0.1-0.5-0.2    l-1.7-2.5l-1.3,5.1c0,0.2-0.2,0.3-0.4,0.4C260.3,279.7,260.2,279.7,260.2,279.7L260.2,279.7z" id="XMLID_95_"/></g><g id="XMLID_92_"><path class="st3" d="M259,286.8c0,0-0.1,0-0.1,0c-0.3-0.1-0.5-0.3-0.4-0.6l1.2-5.9c0-0.2,0.2-0.4,0.4-0.4    c0.2-0.1,0.4,0,0.5,0.2l2.5,3.2l1.2-3.8c0.1-0.2,0.2-0.3,0.4-0.3c0.2,0,0.4,0,0.5,0.2l2.2,2.8l2.1-5c0.1-0.3,0.4-0.4,0.7-0.3    c0.3,0.1,0.4,0.4,0.3,0.7l-2.4,5.8c-0.1,0.2-0.2,0.3-0.4,0.3c-0.2,0-0.4-0.1-0.5-0.2l-2.1-2.7l-1.2,3.8c-0.1,0.2-0.2,0.3-0.4,0.3    c-0.2,0.1-0.4,0-0.5-0.2l-2.4-3l-1,4.8C259.5,286.6,259.2,286.8,259,286.8L259,286.8z" id="XMLID_93_"/></g><g id="XMLID_90_"><path class="st3" d="M262.2,291.1c-0.1,0-0.2,0-0.3-0.1l-2.4-2c-0.2-0.2-0.3-0.5-0.1-0.7c0.2-0.2,0.5-0.3,0.7-0.1    l1.8,1.5l1.3-4c0.1-0.2,0.2-0.3,0.4-0.4c0.2,0,0.4,0.1,0.5,0.3l1.8,3l1.6-4.1c0.1-0.2,0.2-0.3,0.4-0.3c0.1,0,0.4,0,0.5,0.2    l2.3,3.2c0.2,0.2,0.1,0.6-0.1,0.7c-0.2,0.2-0.6,0.1-0.7-0.1l-1.8-2.4l-1.6,4.2c-0.1,0.2-0.2,0.3-0.4,0.3c-0.2,0.1-0.4-0.1-0.5-0.3    l-1.7-2.9l-1.2,3.6c-0.1,0.2-0.2,0.3-0.3,0.3C262.3,291,262.2,291.1,262.2,291.1L262.2,291.1z" id="XMLID_91_"/></g><path class="st1" d="M253.2,236.4c3.9,3.1,9,4.6,14.8,4.3c-0.4,13.6-4.3,23-14.8,30c-10.5-7-14.4-16.4-14.8-30   C244.2,241,249.3,239.4,253.2,236.4L253.2,236.4z" id="XMLID_89_"/><g id="XMLID_85_"><path class="st3" d="M253.2,271c-0.1,0-0.1,0-0.2-0.1c-10-6.7-14.5-15.8-15-30.3c0.9-0.3,1.4-0.3,2-0.3l0,0    c5,0,9.5-1.5,13-4.3c4.4,3.1,9.3,4.6,15,4.2c-0.1,14.9-4.5,24-14.6,30.7C253.3,271,253.2,271,253.2,271L253.2,271z M238.3,241    c0.8,13.8,5.2,22.7,14.9,29.2c9.7-6.5,14-15.4,14.5-29.6c-0.2,0.4-0.7,0.4-1.2,0.4c-5.1,0-9.8-1.5-13.5-4.4    c-3.1,2.9-7.8,4.4-13,4.4l0,0C239.4,241.1,238.9,241,238.3,241L238.3,241z" id="XMLID_86_"/></g><path class="st3" d="M253.2,269.1c8.2-5.5,12.9-14.8,13.3-27.3c-5.1,0-10.2-1.1-13.3-3.9c-3.5,2.7-8.1,3.9-13.6,3.9   C240.3,254.3,245,263.6,253.2,269.1L253.2,269.1z" id="XMLID_84_"/><g id="XMLID_80_"><path class="st3" d="M253.2,269.6c-0.1,0-0.2,0-0.3-0.1c-8.3-5.6-13.1-15.2-13.8-27.7c0-0.1,0-0.3,0.1-0.4    c0.1-0.1,0.2-0.1,0.4-0.1c5.7,0,10.1-1.2,13.3-3.8c0.2-0.1,0.4-0.1,0.6,0c2.7,2.4,7.4,3.7,13,3.7c0.1,0,0.3,0.1,0.3,0.1    c0.1,0.1,0.1,0.2,0.1,0.4c-0.4,12.5-5.1,22.1-13.5,27.7C253.3,269.6,253.3,269.6,253.2,269.6L253.2,269.6z M240,242.2    c0.8,11.9,5.4,20.9,13.1,26.3c7.9-5.4,12.3-14.4,12.8-26.3c-3.4,0-9.1-0.6-12.8-3.7C249.9,241,245.6,242.2,240,242.2L240,242.2z" id="XMLID_81_"/></g><path class="st1" d="M239.9,288.6c3.2,0.4,6.7,0.8,9.4,0.4c1.5,0,2.7,2.7-0.4,3.1c-2.7,0.3-7,0-9.3-0.4   c-2-0.4-6.3-1.1-9-1.9c-2.7-1.2-0.8-3.5,0.8-3.2C233.7,287.4,236.8,288.1,239.9,288.6L239.9,288.6z" id="XMLID_79_"/><g id="XMLID_75_"><path class="st3" d="M246.2,292.7c-2.5,0-5.2-0.3-6.8-0.6c-1.9-0.3-6.2-1.1-9-1.9c-1.8-0.8-1.8-2-1.7-2.4    c0.2-1,1.2-1.8,2.3-1.8c2.1,0.6,5.3,1.5,9,2c2.4,0.3,6.4,0.8,9.3,0.4h0c1.1,0,2,0.9,2.1,1.9c0.1,0.9-0.5,1.9-2.4,2.2    C248.1,292.7,247.2,292.7,246.2,292.7L246.2,292.7z M231.1,287.1c-0.7,0-1.3,0.5-1.4,1c-0.1,0.6,0.6,1,1,1.2    c2.7,0.7,7,1.5,8.9,1.9c2.1,0.4,6.4,0.8,9.2,0.4c1-0.1,1.5-0.5,1.5-1.1c0-0.5-0.5-1-1-1c-2.7,0.4-7-0.1-9.5-0.4    C236,288.6,232.8,287.6,231.1,287.1C231.1,287.1,231.1,287.1,231.1,287.1L231.1,287.1z" id="XMLID_76_"/></g><path class="st1" d="M266.4,288.6c-3.2,0.4-6.7,0.8-9.3,0.4c-1.6,0-2.7,2.7,0.3,3.1c2.7,0.3,7,0,9.3-0.4   c2-0.4,6.3-1.1,9-1.9c2.7-1.2,0.8-3.5-0.8-3.2C272.6,287.4,269.5,288.1,266.4,288.6L266.4,288.6z" id="XMLID_74_"/><g id="XMLID_70_"><path class="st3" d="M260.1,292.7c-1,0-1.9,0-2.7-0.1c-1.9-0.3-2.5-1.3-2.4-2.2c0.1-1.1,1-2,2.1-2    c3,0.4,6.8-0.1,9.3-0.4c3.7-0.5,6.9-1.4,8.5-1.9c1.5-0.2,2.6,0.7,2.8,1.7c0.1,0.5,0.1,1.6-1.6,2.4c-2.9,0.8-7.2,1.6-9.1,1.9    C265.3,292.5,262.6,292.7,260.1,292.7L260.1,292.7z M257,289.5c-0.5,0-1,0.5-1,1c0,0.5,0.5,0.9,1.5,1.1c2.7,0.3,7.1,0,9.2-0.4    c1.9-0.3,6.2-1.1,9-1.9c0.4-0.2,1.1-0.6,1-1.2c-0.1-0.5-0.7-1-1.3-1c-1.8,0.5-5,1.5-8.8,2C263.8,289.4,259.9,289.9,257,289.5    L257,289.5z" id="XMLID_71_"/></g><path class="st1" d="M230.2,287c-2.4-0.4-3.5,2.3-2.7,3.9c0.3-0.8,2-0.8,2.3-1.5C230.2,288.1,229.4,288.1,230.2,287   L230.2,287z" id="XMLID_69_"/><g id="XMLID_65_"><path class="st3" d="M227.5,291.4c-0.2,0-0.4-0.1-0.5-0.3c-0.5-0.9-0.4-2.2,0.2-3.2c0.6-0.9,1.5-1.4,2.5-1.4    c0.2,0,0.6,0.2,0.7,0.3c0.1,0.2,0.3,0.4,0.2,0.5c-0.3,0.5-0.3,0.6-0.2,0.8c0,0.3,0.1,0.7-0.1,1.4c-0.3,0.6-0.9,0.9-1.5,1.1    c-0.4,0.1-0.8,0.3-0.9,0.5C227.8,291.3,227.7,291.5,227.5,291.4L227.5,291.4z M229.3,287.6c-0.7,0.2-1.1,0.6-1.2,0.8    c-0.3,0.4-0.4,1-0.4,1.5c0.2-0.1,0.5-0.2,0.7-0.3c0.4-0.1,0.8-0.3,0.9-0.5c0.1-0.4,0.1-0.6,0.1-0.8    C229.3,288.1,229.3,287.9,229.3,287.6L229.3,287.6z" id="XMLID_66_"/></g><path class="st1" d="M239.5,294.2c0-1.5,1.5-1.3,1.5-2.9c0-0.8-0.4-2-1.2-2c-0.8,0-1.5,0.8-1.5,1.5   C238,292.4,239.5,292.7,239.5,294.2L239.5,294.2z" id="XMLID_64_"/><g id="XMLID_60_"><path class="st3" d="M239.5,294.7c-0.3,0-0.5-0.2-0.5-0.5c0-0.5-0.2-0.9-0.6-1.3c-0.4-0.5-0.9-1.1-0.6-2.2    c0-0.9,1-2,2.1-2c1.2,0,1.7,1.5,1.7,2.5c0,1-0.6,1.5-1,1.8c-0.4,0.3-0.6,0.5-0.6,1.1C240.1,294.5,239.8,294.7,239.5,294.7    L239.5,294.7z M239.9,289.9c-0.5,0-1,0.5-1,1c-0.1,0.7,0.1,1,0.4,1.4c0.1,0.1,0.2,0.3,0.3,0.4c0.1-0.1,0.3-0.3,0.4-0.4    c0.4-0.3,0.6-0.5,0.6-1.1C240.6,290.6,240.2,289.9,239.9,289.9L239.9,289.9z" id="XMLID_61_"/></g><path class="st1" d="M250.7,289.8c2.3,0,2.1,3.1,1,4.6c0-1.1-2-1.5-2-2.3C249.6,290.9,251.4,290.9,250.7,289.8   L250.7,289.8z" id="XMLID_59_"/><g id="XMLID_55_"><path class="st3" d="M251.6,294.9c-0.1,0-0.1,0-0.2,0c-0.2-0.1-0.4-0.3-0.4-0.5c0-0.3-0.4-0.7-0.9-1    c-0.5-0.4-1.1-0.7-1.1-1.4c0-0.8,0.5-1.2,0.9-1.5c-0.1-0.2,0-0.6,0.1-0.8c0.1-0.2,0.4-0.5,0.6-0.5c0.9,0,1.6,0.4,2,1.2    c0.6,1.3,0.2,3.2-0.6,4.3C251.9,294.8,251.8,294.9,251.6,294.9L251.6,294.9z M251.4,290.4c-0.1,0.4-0.4,0.7-0.7,0.9    c-0.3,0.3-0.5,0.4-0.5,0.7c0,0.1,0.4,0.4,0.6,0.5c0.3,0.2,0.6,0.4,0.9,0.7c0.3-0.8,0.4-1.8,0.1-2.4    C251.6,290.7,251.5,290.5,251.4,290.4L251.4,290.4z" id="XMLID_56_"/></g><path class="st1" d="M276.1,287c2.4-0.4,3.5,2.3,2.7,3.9c-0.3-0.8-2-0.8-2.3-1.5C276.1,288.1,276.9,288.1,276.1,287   L276.1,287z" id="XMLID_54_"/><g id="XMLID_50_"><path class="st3" d="M278.9,291.4c-0.2-0.1-0.4-0.1-0.5-0.3c-0.1-0.2-0.5-0.4-0.9-0.5c-0.6-0.2-1.2-0.5-1.4-1    c-0.2-0.7-0.2-1.1-0.1-1.4c0-0.3,0.1-0.4-0.2-0.8c-0.1-0.1-0.1-0.3-0.1-0.5c0.1-0.2,0.2-0.3,0.4-0.3c1.7-0.1,2.5,0.5,3.1,1.4    c0.6,1,0.7,2.3,0.2,3.2C279.3,291.3,279.1,291.4,278.9,291.4L278.9,291.4z M277,287.5c0.1,0.3,0.1,0.5,0,0.8    c0,0.2-0.1,0.4,0.1,0.8c0.1,0.2,0.5,0.3,0.9,0.5c0.2,0.1,0.5,0.2,0.7,0.3c0-0.5-0.1-1.1-0.4-1.5C278,288.1,277.6,287.6,277,287.5    L277,287.5z" id="XMLID_51_"/></g><path class="st1" d="M266.8,294.2c0-1.5-1.5-1.3-1.5-2.9c0-0.8,0.4-2,1.2-2c0.8,0,1.5,0.8,1.5,1.5   C268.3,292.4,266.8,292.7,266.8,294.2L266.8,294.2z" id="XMLID_49_"/><g id="XMLID_45_"><path class="st3" d="M266.8,294.7c-0.3,0-0.5-0.2-0.5-0.5c0-0.5-0.2-0.7-0.6-1.1c-0.4-0.3-1-0.8-1-1.8    c0-1,0.5-2.5,1.7-2.5c1.1,0,2.1,1,2.1,2.1c0.2,0.9-0.3,1.6-0.6,2.1c-0.3,0.4-0.6,0.7-0.6,1.3C267.3,294.5,267.1,294.7,266.8,294.7    L266.8,294.7z M266.4,289.9c-0.3,0-0.7,0.8-0.7,1.4c0,0.5,0.2,0.7,0.6,1.1c0.1,0.1,0.3,0.2,0.4,0.4c0.1-0.1,0.2-0.3,0.3-0.4    c0.3-0.4,0.6-0.7,0.4-1.3C267.5,290.4,266.9,289.9,266.4,289.9L266.4,289.9z" id="XMLID_46_"/></g><path class="st1" d="M255.7,289.8c-2.3,0-2.1,3.1-1,4.6c0-1.1,2-1.5,2-2.3C256.7,290.9,254.9,290.9,255.7,289.8   L255.7,289.8z" id="XMLID_44_"/><g id="XMLID_40_"><path class="st3" d="M254.7,294.9c-0.2,0-0.3-0.1-0.4-0.2c-0.8-1.1-1.3-3-0.6-4.3c0.4-0.8,1.1-1.2,2-1.2    c0.2,0,0.4,0.1,0.5,0.3c0.1,0.2,0.1,0.4,0,0.5c0.6,0.8,1.1,1.2,1.1,2c0,0.6-0.5,1-1.1,1.4c-0.4,0.3-0.9,0.6-0.9,1    c0,0.2-0.1,0.4-0.4,0.5C254.8,294.9,254.8,294.9,254.7,294.9L254.7,294.9z M255,290.4c-0.2,0.1-0.3,0.2-0.4,0.4    c-0.3,0.6-0.2,1.5,0.1,2.4c0.3-0.3,0.6-0.5,0.9-0.7c0.2-0.2,0.6-0.4,0.6-0.5c0-0.3-0.2-0.4-0.5-0.7    C255.4,291.2,255.1,290.9,255,290.4L255,290.4z" id="XMLID_41_"/></g><path class="st1" d="M231,287.8c0.8,0,2,0.3,2.3,0.8L231,287.8z" id="XMLID_39_"/><g id="XMLID_37_"><path class="st3" d="M233.3,288.9c0,0-0.1,0-0.1,0l-2.3-0.8c-0.2-0.1-0.3-0.2-0.2-0.4c0-0.2,0.2-0.3,0.4-0.3    c0.8,0,2.1,0.3,2.6,0.9c0.1,0.1,0.1,0.3,0,0.4C233.5,288.9,233.4,288.9,233.3,288.9L233.3,288.9z" id="XMLID_38_"/></g><path class="st1" d="M234.8,289c0.4,0,2,0.3,2.7,0.8L234.8,289z" id="XMLID_36_"/><g id="XMLID_34_"><path class="st3" d="M237.6,290.1C237.5,290.1,237.5,290.1,237.6,290.1l-2.8-0.8c-0.2-0.1-0.3-0.2-0.3-0.4    c0.1-0.7,2.2-0.1,3.3,0.5c0.2,0.1,0.2,0.3,0.2,0.5C237.8,290,237.7,290.1,237.6,290.1L237.6,290.1z" id="XMLID_35_"/></g><path class="st1" d="M248.9,290.5c-0.8,0-2.3,0-2.7,0.4L248.9,290.5z" id="XMLID_33_"/><g id="XMLID_31_"><path class="st3" d="M246.1,291.2c-0.1,0-0.3-0.1-0.3-0.2c-0.1-0.1,0-0.3,0.1-0.4c0.4-0.4,1.5-0.4,3-0.4    c0.2,0,0.4,0.1,0.4,0.3c0,0.2-0.1,0.4-0.3,0.4L246.1,291.2C246.2,291.2,246.2,291.2,246.1,291.2L246.1,291.2z" id="XMLID_32_"/></g><path class="st1" d="M244.6,290.5c-0.4-0.4-2-0.4-2.7,0H244.6z" id="XMLID_30_"/><g id="XMLID_28_"><path class="st3" d="M244.6,290.9h-2.7c-0.2,0-0.3-0.1-0.4-0.3c0-0.2,0-0.3,0.2-0.4c0.7-0.4,2.2-0.9,3.2,0.1    c0.1,0.1,0.1,0.3,0.1,0.4C244.9,290.8,244.7,290.9,244.6,290.9L244.6,290.9z" id="XMLID_29_"/></g><path class="st1" d="M275.4,287.8c-0.8,0-1.9,0.3-2.3,0.8L275.4,287.8z" id="XMLID_27_"/><g id="XMLID_25_"><path class="st3" d="M273,288.9c-0.1,0-0.2-0.1-0.3-0.2c-0.1-0.1-0.1-0.3,0.1-0.4c0.5-0.5,1.8-0.9,2.6-0.9    c0.2,0,0.3,0.1,0.4,0.3c0,0.2-0.1,0.3-0.2,0.4l-2.3,0.8C273.1,288.9,273.1,288.9,273,288.9L273,288.9z" id="XMLID_26_"/></g><path class="st1" d="M271.5,289c-0.4,0-2,0.3-2.7,0.8L271.5,289z" id="XMLID_24_"/><g id="XMLID_22_"><path class="st3" d="M268.8,290.1c-0.1,0-0.3-0.1-0.3-0.2c-0.1-0.2,0-0.4,0.2-0.5c1.2-0.6,3.2-1.1,3.3-0.5    c0,0.2-0.1,0.3-0.3,0.4L268.8,290.1C268.8,290.1,268.8,290.1,268.8,290.1L268.8,290.1z" id="XMLID_23_"/></g><path class="st1" d="M257.4,290.5c0.8,0,2.3,0,2.7,0.4L257.4,290.5z" id="XMLID_21_"/><g id="XMLID_19_"><path class="st3" d="M260.2,291.2C260.2,291.2,260.2,291.2,260.2,291.2l-2.8-0.4c-0.2,0-0.3-0.2-0.3-0.4    c0-0.2,0.2-0.3,0.4-0.3c1.5,0,2.5,0.1,3,0.4c0.1,0.1,0.2,0.3,0.1,0.4C260.5,291.2,260.3,291.2,260.2,291.2L260.2,291.2z" id="XMLID_20_"/></g><path class="st1" d="M261.7,290.5c0.4-0.4,2-0.4,2.7,0H261.7z" id="XMLID_18_"/><g id="XMLID_16_"><path class="st3" d="M264.5,290.9h-2.7c-0.1,0-0.3-0.1-0.3-0.2c-0.1-0.1,0-0.3,0.1-0.4c1-0.9,2.5-0.4,3.2-0.1    c0.1,0.1,0.2,0.2,0.2,0.4C264.8,290.8,264.6,290.9,264.5,290.9L264.5,290.9z" id="XMLID_17_"/></g><path class="st3" d="M258.6,213.7c-0.8-2-2.2-3.5-4.1-3.9c-1-0.3-2-0.2-3.1-0.2c-1.2-0.3-2.2,0.9-2.6,1.7   c1.2,0.8,1.5,1.7,2.1,2c1.2,0.4,1.8,0,3-1.1C255.1,211,257.9,211.3,258.6,213.7L258.6,213.7z" id="XMLID_15_"/><g id="XMLID_11_"><path class="st3" d="M251.8,213.7c-0.3,0-0.6-0.1-0.9-0.2c-0.4-0.1-0.6-0.4-0.9-0.8c-0.3-0.3-0.7-0.8-1.3-1.2    c0.2-0.8,1-2.2,2.3-2.2l1,0.1c1.2-0.1,1.9,0,2.6,0.2c1.6,0.3,3,1.5,3.9,3.3c-1.5-1.1-3.5-1.6-4.5-0.6    C253.2,213.2,252.6,213.7,251.8,213.7L251.8,213.7z M251.4,209.9c-1.1,0-1.8,0.8-2.3,1.6c0.6,0.2,1,0.6,1.3,1    c0.3,0.3,0.4,0.5,0.7,0.6c1,0.3,1.5,0.1,2.7-1.1c0.9-0.9,2.6-0.9,3.7-0.2c-0.9-0.9-1.9-1.5-3-1.7c-0.6-0.2-1.3-0.2-1.9-0.2l-1.2,0    C251.4,209.9,251.4,209.9,251.4,209.9L251.4,209.9z" id="XMLID_12_"/></g><path class="st1" d="M251.2,210.7c-0.8,0-0.8,1.2,0,1.2C252,211.9,252,210.7,251.2,210.7L251.2,210.7z" id="XMLID_10_"/><g id="XMLID_8_"><path class="st1" d="M251.2,212.4c-0.6,0-1.1-0.5-1.1-1.1c0-1.3,2.2-1.3,2.2,0C252.3,211.9,251.8,212.4,251.2,212.4    L251.2,212.4z" id="XMLID_9_"/></g><path class="st1" d="M257.9,240.5V265c-1.4,1.5-3,2.9-4.8,4.1c-1.8-1.2-3.4-2.5-4.8-4.1v-24.6   c1.8-0.6,3.4-1.5,4.8-2.5C254.5,239,256.1,239.9,257.9,240.5L257.9,240.5z" id="XMLID_7_"/></g></svg>