<?xml version="1.0"?>
<svg xmlns="http://www.w3.org/2000/svg" xmlns:xlink="http://www.w3.org/1999/xlink" version="1.1" id="Capa_1" x="0px" y="0px" viewBox="0 0 71.034 71.034" style="enable-background:new 0 0 71.034 71.034;" xml:space="preserve" width="512px" height="512px" class=""><g><path d="M70.969,41.859l-8.167-21.583c-0.147-0.389-0.52-0.646-0.935-0.646H21.034  c-0.416,0-0.788,0.257-0.935,0.646l-8.167,21.583c-0.043,0.113-0.065,0.233-0.065,0.354v18.917H9.458V9.905h1.745  c-0.097,0.29-0.162,0.595-0.162,0.917c0,1.608,1.308,2.917,2.917,2.917s2.917-1.308,2.917-2.917s-1.309-2.917-2.917-2.917h-11  c-0.005,0-0.009,0.003-0.014,0.003c-0.009,0-0.018-0.003-0.028-0.003C1.308,7.905,0,9.213,0,10.822s1.308,2.917,2.917,2.917  s2.917-1.308,2.917-2.917c0-0.322-0.065-0.627-0.162-0.917h1.787v52.225c0,0.552,0.448,1,1,1h4.409h0.674h56.492  c0.552,0,1-0.448,1-1V42.213C71.034,42.092,71.012,41.972,70.969,41.859z M13.958,11.738c-0.505,0-0.917-0.411-0.917-0.917  c0-0.506,0.411-0.917,0.917-0.917c0.506,0,0.917,0.411,0.917,0.917C14.875,11.327,14.464,11.738,13.958,11.738z M2.917,11.738  C2.411,11.738,2,11.327,2,10.822c0-0.506,0.411-0.917,0.917-0.917s0.917,0.411,0.917,0.917C3.833,11.327,3.422,11.738,2.917,11.738z   M69.034,61.129H13.867V42.395l7.857-20.766h39.452l7.857,20.766V61.129z M49.451,57.155c0,0.276-0.224,0.5-0.5,0.5H15.326  c-0.276,0-0.5-0.224-0.5-0.5s0.224-0.5,0.5-0.5h33.625C49.227,56.655,49.451,56.878,49.451,57.155z M15.326,41.879h52.25  c0.276,0,0.5,0.224,0.5,0.5s-0.224,0.5-0.5,0.5h-52.25c-0.276,0-0.5-0.224-0.5-0.5S15.049,41.879,15.326,41.879z M64.326,45.638  h-12.25c-0.276,0-0.5,0.224-0.5,0.5v11.016c0,0.276,0.224,0.5,0.5,0.5h12.25c0.276,0,0.5-0.224,0.5-0.5V46.138  C64.826,45.862,64.602,45.638,64.326,45.638z M63.826,56.655h-11.25V46.638h11.25V56.655z M53.43,48.938v-0.9  c0-0.165,0.135-0.3,0.3-0.3h8.942c0.165,0,0.3,0.135,0.3,0.3v0.9c0,0.165-0.135,0.3-0.3,0.3H53.73  C53.565,49.238,53.43,49.103,53.43,48.938z M53.409,50.853c0-0.207,0.168-0.375,0.375-0.375h8.833c0.207,0,0.375,0.168,0.375,0.375  s-0.168,0.375-0.375,0.375h-8.833C53.577,51.228,53.409,51.06,53.409,50.853z M53.409,52.134c0-0.207,0.168-0.375,0.375-0.375h8.833  c0.207,0,0.375,0.168,0.375,0.375s-0.168,0.375-0.375,0.375h-8.833C53.577,52.509,53.409,52.341,53.409,52.134z M53.409,53.415  c0-0.207,0.168-0.375,0.375-0.375h8.833c0.207,0,0.375,0.168,0.375,0.375s-0.168,0.375-0.375,0.375h-8.833  C53.577,53.79,53.409,53.622,53.409,53.415z M53.409,55.322c0-0.207,0.168-0.375,0.375-0.375h2.031c0.207,0,0.375,0.168,0.375,0.375  s-0.168,0.375-0.375,0.375h-2.031C53.577,55.697,53.409,55.529,53.409,55.322z M22.792,32.485h1.118  c0.479,2.868,2.971,5.063,5.973,5.063c3.343,0,6.063-2.72,6.063-6.063s-2.72-6.063-6.063-6.063c-3.001,0-5.494,2.195-5.973,5.063  h-1.118c-0.552,0-1,0.448-1,1S22.239,32.485,22.792,32.485z M29.882,27.422c2.24,0,4.063,1.822,4.063,4.063  s-1.822,4.063-4.063,4.063s-4.063-1.822-4.063-4.063S27.642,27.422,29.882,27.422z M60.229,30.485h-1.237  c-0.479-2.868-2.971-5.063-5.973-5.063c-3.343,0-6.063,2.72-6.063,6.063s2.72,6.063,6.063,6.063c3.001,0,5.494-2.195,5.973-5.063  h1.237c0.552,0,1-0.448,1-1S60.781,30.485,60.229,30.485z M53.019,35.547c-2.24,0-4.063-1.822-4.063-4.063s1.822-4.063,4.063-4.063  s4.063,1.822,4.063,4.063S55.259,35.547,53.019,35.547z M21.732,17.613c0-0.552,0.448-1,1-1h37.437c0.552,0,1,0.448,1,1  s-0.448,1-1,1H22.732C22.18,18.613,21.732,18.165,21.732,17.613z" data-original="#000000" class="active-path" data-old_color="#000000" fill="#007AFF"/></g> </svg>
