<?xml version="1.0"?>
<svg xmlns="http://www.w3.org/2000/svg" xmlns:xlink="http://www.w3.org/1999/xlink" version="1.1" id="Capa_1" x="0px" y="0px" viewBox="0 0 390.086 390.086" style="enable-background:new 0 0 390.086 390.086;" xml:space="preserve" width="512px" height="512px"><g><g>
	<g id="Guides_For_Artboard_6_">
	</g>
	<g id="Artwork_6_">
	</g>
	<g id="Layer_2_6_">
		<g>
			<path style="fill:#81B6B2;" d="M140.423,140.854c6.248,0.793,14.214-0.323,21.857-3.063     c15.562-5.589,24.978-15.939,22.997-21.451c-0.75-2.103-3.655-4.053-7.291-4.943c-3.286,2.324-7.165,4.328-11.394,5.844     c-5.175,1.85-10.45,2.836-15.255,2.836c-0.458,0-0.886-0.03-1.336-0.048c-0.315,0.578-0.593,1.064-0.81,1.436     c-0.601,1.054-1.717,1.718-2.948,1.746c-0.014,0-0.044,0-0.073,0c-1.194,0-2.319-0.607-2.941-1.615l-1.007-1.519     c-8.962,5.804-12.57,12.338-11.339,15.772C131.776,138.346,135.336,140.223,140.423,140.854z" data-original="#81B6B2"/>
			<path style="fill:#81B6B2;" d="M178.135,102.386c2.582-2.735,3.722-5.465,3.07-7.288c-0.843-2.349-4.802-3.857-10.098-3.857     c-2.978,0-6.201,0.466-9.479,1.352c-1.71,7.065-5.087,14.774-7.992,20.572c3.406-0.253,7.055-1.01,10.684-2.315     C169.924,108.833,174.956,105.749,178.135,102.386z" data-original="#81B6B2"/>
			<path style="fill:#81B6B2;" d="M139.987,167.394c6.262,0.799,14.229-0.321,21.872-3.063c15.558-5.599,24.979-15.94,22.997-21.46     c-0.688-1.932-2.476-3.146-4.468-3.911c-4.249,2.924-9.31,5.494-14.994,7.533c-7.083,2.542-14.276,3.86-20.763,3.86     c-1.86,0-3.662-0.11-5.402-0.322c-0.567-0.082-1.109-0.188-1.688-0.29c-5.398,4.527-8.218,9.464-7.094,12.644     C131.348,164.867,134.911,166.749,139.987,167.394z" data-original="#81B6B2"/>
			<path style="fill:#81B6B2;" d="M171.086,322.62c-2.722,0.028-3.795,3.07-3.795,4.292s5.505,4.161,8.542,5.67     c0.67,0.322,5.475-2.072,5.475-4.072S173.799,322.606,171.086,322.62z" data-original="#81B6B2"/>
			<path style="fill:#81B6B2;" d="M218.569,313.113c3.106-2.544,4.285-8.878,4.227-13.457c-0.029-2.505-3.976-7.054-7.163-7.054     c-3.189,0-4.813,2.27-6.732,4.176c-3.531,3.486-4.357,7.59-8.082,10.82c-1.264,1.106-5.352,0.857-8.433,0.079     c-3.08-0.779-7.467-7.45-10.214-11.853c-3.22-5.165-6.585-4.512-10.485-1.626c-5.37,3.985-5.882,11.206-0.945,17.272     C177.175,320.642,206.688,327.426,218.569,313.113z" data-original="#81B6B2"/>
			<path style="fill:#81B6B2;" d="M219.579,322.592c-3.362,0.482-7.632,4.644-7.632,6.606c0,1.962,3.443,3.66,4.38,3.339     c3.04-1.084,10.343-4.574,10.343-6.051S222.934,322.114,219.579,322.592z" data-original="#81B6B2"/>
			<path style="fill:#81B6B2;" d="M184.863,169.753c-0.608-1.697-2.458-3.114-5.189-4.044c-4.187,2.828-9.135,5.333-14.688,7.328     c-7.086,2.536-14.264,3.861-20.783,3.861c-1.832,0-3.638-0.103-5.362-0.322c-0.355-0.044-0.67-0.129-1.007-0.173     c-5.57,4.566-8.534,9.604-7.38,12.862c0.901,2.499,4.465,4.365,9.541,5.004c6.263,0.791,14.229-0.33,21.872-3.066     C177.425,185.615,186.845,175.272,184.863,169.753z" data-original="#81B6B2"/>
			<path style="fill:#81B6B2;" d="M246.792,119.083c-0.938,0.257-1.957,0.471-2.967,0.638l-1.216,1.882     c-0.659,1.015-1.758,1.615-2.959,1.615c-0.029,0-0.059,0-0.088,0c-1.216-0.03-2.344-0.692-2.944-1.748     c-0.235-0.397-0.528-0.937-0.879-1.566c-3.809-0.355-7.779-1.253-11.698-2.657c-4.226-1.514-8.108-3.525-11.39-5.844     c-3.633,0.894-6.549,2.842-7.297,4.943c-1.984,5.514,7.443,15.865,23,21.452c7.648,2.732,15.603,3.856,21.857,3.062     c5.092-0.637,8.644-2.514,9.538-5.002C261.082,132.211,256.965,125.108,246.792,119.083z" data-original="#81B6B2"/>
			<path style="fill:#81B6B2;" d="M341.916,1.497H195.043H48.17C21.566,1.497,0,23.063,0,49.667v290.752     c0,26.604,21.566,48.17,48.17,48.17h146.873h96.625V338.34c0-26.604,21.567-48.171,48.169-48.171h50.249V49.666     C390.086,23.063,368.52,1.497,341.916,1.497z M112.567,326.545c-0.693,0.117-1.286,0.426-1.667,0.249     c-4.71-2.116-7.893,0.146-11.116,3.327c-0.765,0.768-3.885,0.512-4.666-0.396c-1.344-1.509-3.556-4.11-2.267-5.773     c7.958-13.967,4.681-46.702,3.744-59.986c-0.923-13.37-2.85-26.699-4.989-39.953c-0.846-5.236-2.977-10.442-5.42-15.213     c-2.897-5.691-1.904-8.205,4.318-9.12c2.23-0.329,4.271-1.948,6.413-2.985c1.869-0.9,3.842-2.706,5.567-2.497     c2.117,0.271,4.93,1.823,5.703,3.593c0.611,1.336-0.957,4.889-2.491,5.701c-5.973,3.157-6.054,8.011-5.318,13.605     c2.736,21.361,5.105,42.783,8.182,64.095c0.901,6.108,3.736,32.264,5.79,38.169C115.394,322.34,116.585,325.155,112.567,326.545z      M240.412,309.23c-5.683,3.176-6.958,13.45-8.241,17.58c-0.745,2.474-1.986,11.881-9.079,11.881s-42.547,0-52.367,0     c-9.819,0-11.018-9.548-11.686-12.116c-1.552-5.97-7.678-16.066-13.649-19.865c-2.467-1.568-4.128-8.072-7.062-11.309     c-9.463-10.387-10.672-19.528-3.424-31.307c9.061-14.723,25.447-17.611,38.313-6.531c4.508,3.883,8.713,8.153,12.711,12.567     c7.087,7.821,12.369,7.777,19.5-0.117c3.963-4.418,8.219-8.669,12.708-12.563c12.358-10.719,28.047-8.58,37.203,5.49     c3.121,4.787,4.483,10.734,5.948,14.412C264.481,289.116,246.094,306.051,240.412,309.23z M298.191,208.799     c-2.433,4.771-4.571,9.977-5.406,15.213c-2.146,13.254-4.043,26.583-4.988,39.953c-0.945,13.284-4.087,46.02,3.875,59.986     c1.274,1.663-0.938,4.265-2.278,5.773c-0.784,0.908-3.904,1.164-4.665,0.396c-3.231-3.188-6.402-5.443-11.105-3.327     c-0.381,0.177-0.967-0.132-1.677-0.249c-4.007-1.391-2.828-4.205-1.78-7.186c2.065-5.91,4.833-11.742,5.713-17.851     c3.105-21.315,5.398-63.052,8.153-84.413c0.71-5.595,0.623-10.448-5.333-13.605c-1.539-0.813-3.085-4.365-2.505-5.701     c0.784-1.77,3.597-3.322,5.713-3.593c1.721-0.209,3.699,1.597,5.574,2.497c2.138,1.037,4.176,2.656,6.417,2.985     C300.109,200.594,301.091,203.108,298.191,208.799z M300.857,193.507c-0.579,1.019-3.589,1.884-4.498,1.282     c-3.78-2.498-7.34-4.088-11.559-1.096c-0.336,0.231-0.967,0.052-1.677,0.082c-4.212-0.598-3.597-3.58-3.135-6.715     c0.872-6.191,2.453-12.456,2.131-18.616c-1.121-21.5-2.96-42.97-4.424-64.456c-0.396-5.628-1.414-10.393-7.867-12.326     c-1.246-0.365-2.812-2.267-3.384-3.771l-8.036,9.045l-3.552,5.535c1.583,3.111,1.979,6.292,0.923,9.24     c-0.205,0.576-0.468,1.131-0.776,1.666c11.119,7.716,16.379,17.478,13.478,25.586c-1.04,2.898-3.018,5.3-5.75,7.145     c6.036,6.407,8.329,13.362,6.175,19.39c-1.106,3.054-3.237,5.566-6.211,7.465c6.013,6.391,8.364,13.388,6.211,19.403     c-2.168,6.008-8.24,9.939-17.083,11.064c-0.036,0-0.087,0-0.131,0.006c3.596,6.781,4.043,13.271,1.01,18.229     c-2.966,4.889-8.687,7.514-16.261,7.514c-0.872,0-1.765-0.027-2.681-0.105c-6.233-0.479-13.133-2.564-19.851-5.941     c-0.475,2.355-1.706,4.443-3.398,6.011c1.188,1.671,1.905,3.711,1.905,5.926v1.7c0,3.159-1.451,5.979-3.691,7.869     c0.6,1.196,0.973,2.549,0.973,3.988v1.345c0,2.999-1.473,5.64-3.75,7.277c0.256,0.538,0.417,1.146,0.417,1.783v3.878     c0,4.084-3.311,7.417-7.409,7.417h-7.222c-2.347,0-4.245-1.897-4.245-4.238c0-2.348,1.898-4.243,4.245-4.243h6.146v-2.806     c0-0.023,0.015-0.044,0.015-0.086h-7.951c-2.348,0-4.231-1.896-4.231-4.244c0-2.348,1.89-4.238,4.231-4.238h10.785     c0.268,0,0.48-0.214,0.48-0.493v-1.344c0-0.268-0.212-0.495-0.48-0.495h-10.785c-0.038,0-0.072-0.012-0.11-0.014     c-0.116,0.009-0.227,0.036-0.346,0.036c-2.667,0-4.83-2.162-4.83-4.83c0-2.667,2.163-4.831,4.83-4.831     c0.109,0,0.211,0.025,0.318,0.034h12.355c0.966,0,1.743-0.79,1.743-1.76v-1.699c0-0.971-0.784-1.757-1.743-1.757h-13.676     c-0.1,0-0.195-0.017-0.292-0.022c-0.034,0-0.064,0.01-0.098,0.01c-2.694,0-4.878-2.185-4.878-4.877     c0-0.499,0.097-0.97,0.236-1.424c0.015-0.062,0.038-0.12,0.056-0.181c0.05-0.144,0.098-0.285,0.161-0.422     c0.092-0.214,0.204-0.416,0.332-0.612c0.031-0.049,0.061-0.098,0.094-0.144c0.119-0.167,0.25-0.323,0.391-0.475     c0.095-0.105,0.191-0.207,0.294-0.305c0.064-0.056,0.13-0.108,0.197-0.161c0.633-0.531,1.389-0.912,2.234-1.065     c0.292-0.059,0.588-0.091,0.884-0.091l14.967,0.019c1.4,0,2.542-1.132,2.542-2.542c0,0-0.012-1.236-0.012-2.055     s-0.5-2.402-2.317-2.402s-15.679-0.017-15.679-0.017c-0.056,0-0.121-0.014-0.172-0.021c-1.78,1.351-3.64,2.654-5.611,3.849     c-8.281,5.026-17.111,8.124-24.912,8.714c-0.916,0.076-1.798,0.106-2.685,0.106c-7.566,0-13.298-2.628-16.261-7.517     c-3.015-4.967-2.586-11.444,1.007-18.227c-0.032-0.008-0.077-0.008-0.114-0.008c-8.867-1.125-14.928-5.055-17.089-11.065     c-2.157-6.013,0.191-13.019,6.211-19.403c-2.977-1.897-5.108-4.401-6.211-7.464c-2.157-6.035,0.143-12.982,6.175-19.389     c-2.729-1.842-4.709-4.246-5.739-7.146c-2.915-8.108,2.348-17.869,13.463-25.585c-0.289-0.53-0.575-1.096-0.779-1.667     c-0.458-1.304-0.616-2.654-0.539-4.011l-6.9-10.764l-9.347-10.519c0.015,0.047,0.044,0.092,0.051,0.143     c0.315,1.432-1.911,4.614-3.57,5.109c-6.464,1.936-7.468,6.699-7.867,12.324c-1.469,21.487-3.308,42.956-4.424,64.459     c-0.314,6.16,1.252,12.431,2.128,18.62c0.458,3.136,1.081,6.104-3.143,6.713c-0.704-0.025-1.333,0.153-1.685-0.085     c-4.208-2.992-7.757-1.402-11.537,1.096c-0.9,0.6-3.915-0.265-4.508-1.283c-1.029-1.746-2.699-4.742-1.102-6.111     c10.508-12.16,9.786-24.947,11.445-38.174c1.688-13.299,2.391-26.746,2.871-40.15c0.197-5.311-0.882-10.839-2.354-15.983     c-1.732-6.149-0.268-8.431,6.01-8.108c2.256,0.113,4.575-1.08,6.878-1.682c2.019-0.523,4.296-1.903,5.956-1.355     c0.523,0.181,1.095,0.45,1.633,0.795c-0.143-0.233-0.267-0.464-0.359-0.707c-2.256-6.098-2.077-11.073,0.494-14.796     c3.593-5.159,10.555-5.933,14.378-5.933c1.195,0,1.974,0.072,1.974,0.072c0.136,0.016,0.293,0.045,0.451,0.078     c2.498,0.582,24.572,5.969,29.824,17.309c0.846,1.854,1.153,4.12,1.073,6.626c2.886-0.602,5.721-0.939,8.42-0.939     c3.992,0,7.391,0.676,10.127,1.92v-3.18c0-4.12,2.604-7.605,6.227-8.947c0.585-1.644,2.145-2.837,3.984-2.837h6.142v-2.805     c0-0.023,0.014-0.053,0.014-0.082h-7.943c-2.34,0-4.231-1.896-4.231-4.244c0-2.349,1.897-4.245,4.231-4.245h10.786     c0.271,0,0.487-0.212,0.487-0.483v-2.624c0-0.263-0.216-0.479-0.487-0.479c0,0-13.247,0.667-14.028-0.277     c-1.431-0.687-2.427-2.14-2.427-3.828c0-2.349,1.897-4.245,4.229-4.245c0,0,7.868,0,13.672,0c8.08,0.607,7.53,8.658,7.53,10.111     v1.342c0,2.996-1.479,5.636-3.75,7.277c0.263,0.537,0.425,1.146,0.425,1.783v3.878c0,1.165-0.293,2.253-0.784,3.242     c2.19,1.745,3.611,4.438,3.611,7.478v3.367c2.799-1.396,6.388-2.129,10.607-2.129c1.172,0,2.358,0.059,3.589,0.165     c0-2.196,0.322-4.192,1.098-5.859c5.245-11.34,27.322-16.719,29.813-17.309c0.147-0.034,0.3-0.055,0.454-0.077     c0,0,0.776-0.074,1.985-0.074c3.817,0,10.76,0.774,14.357,5.934c2.564,3.697,2.746,8.632,0.563,14.662     c1.633-0.374,3.81,0.899,5.744,1.401c2.3,0.602,4.614,1.796,6.87,1.681c6.277-0.315,7.735,1.96,5.992,8.109     c-1.451,5.146-2.528,10.664-2.344,15.982c0.468,13.404,1.187,26.853,2.878,40.151c1.634,13.211,0.887,26.009,11.42,38.156     C303.566,188.772,301.874,191.757,300.857,193.507z" data-original="#81B6B2"/>
			<path style="fill:#81B6B2;" d="M252.827,176.398c-0.344,0.043-0.659,0.126-1.004,0.171c-1.728,0.22-3.529,0.324-5.375,0.324     c-6.497,0-13.697-1.328-20.773-3.861c-5.567-1.997-10.49-4.494-14.679-7.33c-2.74,0.938-4.6,2.35-5.215,4.043     c-1.97,5.52,7.442,15.863,23.015,21.452c7.647,2.743,15.609,3.857,21.857,3.064c5.083-0.636,8.651-2.504,9.537-5.003     C261.361,185.999,258.387,180.964,252.827,176.398z" data-original="#81B6B2"/>
			<path style="fill:#81B6B2;" d="M253.106,149.742c-0.579,0.102-1.121,0.208-1.707,0.29c-1.721,0.219-3.538,0.322-5.392,0.322     c-6.49,0-13.668-1.318-20.773-3.86c-5.684-2.039-10.738-4.615-14.98-7.53c-2,0.773-3.779,1.985-4.49,3.908     c-1.963,5.52,7.442,15.861,23.022,21.46c7.64,2.734,15.609,3.861,21.857,3.063c5.076-0.646,8.651-2.527,9.544-5.009     C261.331,159.206,258.519,154.269,253.106,149.742z" data-original="#81B6B2"/>
			<path style="fill:#81B6B2;" d="M225.681,199.894c-8.511-3.042-15.565-7.309-20.656-12.065c0.477,4.314-0.827,9.195-3.944,14.28     c3.315,3.76,7.681,7.383,12.588,10.374c6.951,4.215,14.511,6.906,20.795,7.381c5.113,0.383,8.965-0.732,10.357-2.993     c1.714-2.833,0.073-8.011-4.161-13.448C235.811,202.883,230.714,201.705,225.681,199.894z" data-original="#81B6B2"/>
			<path style="fill:#81B6B2;" d="M226.333,110.849c1.832,0.653,3.663,1.147,5.48,1.554c-2.945-5.995-6.285-13.789-7.823-20.818     c-1.531-0.201-3.032-0.336-4.454-0.336c-5.288,0-9.244,1.517-10.094,3.856c-0.644,1.816,0.506,4.553,3.078,7.281     C215.697,105.749,220.737,108.833,226.333,110.849z" data-original="#81B6B2"/>
			<path style="fill:#81B6B2;" d="M185.622,187.829c-5.076,4.766-12.145,9.029-20.635,12.065c-5.047,1.811-10.14,2.989-14.993,3.528     c-4.224,5.438-5.882,10.606-4.164,13.448c1.388,2.261,5.244,3.376,10.375,2.993c6.27-0.475,13.843-3.166,20.784-7.381     c4.912-2.985,9.27-6.606,12.578-10.374C186.46,197.024,185.157,192.143,185.622,187.829z" data-original="#81B6B2"/>
			<path style="fill:#5A9794;" d="M291.668,338.34v50.248l98.418-98.419h-50.249C313.236,290.169,291.668,311.736,291.668,338.34z" data-original="#5A9794"/>
			<path style="fill:#F7F1E6;" d="M255.34,262.94c-9.156-14.07-24.845-16.209-37.203-5.49c-4.489,3.895-8.746,8.146-12.708,12.563     c-7.131,7.895-12.412,7.938-19.5,0.117c-3.999-4.414-8.203-8.685-12.711-12.567c-12.865-11.08-29.252-8.191-38.313,6.531     c-7.248,11.778-6.04,20.92,3.424,31.307c2.934,3.236,4.595,9.74,7.062,11.309c5.971,3.799,12.097,13.896,13.649,19.865     c0.668,2.568,1.867,12.116,11.686,12.116c9.82,0,45.275,0,52.367,0s8.334-9.407,9.079-11.881     c1.282-4.13,2.558-14.404,8.241-17.58c5.682-3.179,24.069-20.114,20.875-31.878C259.823,273.674,258.461,267.727,255.34,262.94z      M175.832,332.582c-3.037-1.509-8.542-4.448-8.542-5.67s1.073-4.264,3.795-4.292c2.714-0.014,10.221,3.89,10.221,5.89     S176.502,332.904,175.832,332.582z M170.741,311.471c-4.937-6.066-4.425-13.287,0.945-17.272c3.9-2.886,7.266-3.539,10.485,1.626     c2.747,4.402,7.134,11.073,10.214,11.853c3.081,0.778,7.169,1.027,8.433-0.079c3.725-3.23,4.551-7.334,8.082-10.82     c1.919-1.906,3.543-4.176,6.732-4.176c3.188,0,7.134,4.549,7.163,7.054c0.059,4.579-1.121,10.913-4.227,13.457     C206.688,327.426,177.175,320.642,170.741,311.471z M216.327,332.538c-0.938,0.321-4.38-1.377-4.38-3.339     c0-1.963,4.271-6.124,7.632-6.606c3.355-0.479,7.091,2.418,7.091,3.895S219.367,331.454,216.327,332.538z" data-original="#F7F1E6"/>
			<path style="fill:#F7F1E6;" d="M108.56,281.191c-3.077-21.312-5.446-42.733-8.182-64.095c-0.736-5.595-0.655-10.448,5.318-13.605     c1.534-0.813,3.102-4.365,2.491-5.701c-0.773-1.77-3.585-3.322-5.703-3.593c-1.725-0.209-3.698,1.597-5.567,2.497     c-2.142,1.037-4.183,2.656-6.413,2.985c-6.222,0.915-7.215,3.429-4.318,9.12c2.443,4.771,4.574,9.977,5.42,15.213     c2.14,13.254,4.066,26.583,4.989,39.953c0.938,13.284,4.214,46.02-3.744,59.986c-1.289,1.663,0.923,4.265,2.267,5.773     c0.781,0.908,3.901,1.164,4.666,0.396c3.223-3.182,6.406-5.443,11.116-3.327c0.381,0.177,0.974-0.132,1.667-0.249     c4.018-1.391,2.827-4.205,1.783-7.186C112.296,313.455,109.461,287.299,108.56,281.191z" data-original="#F7F1E6"/>
			<path style="fill:#F7F1E6;" d="M293.898,199.679c-2.241-0.329-4.278-1.948-6.417-2.985c-1.875-0.9-3.853-2.706-5.574-2.497     c-2.117,0.271-4.93,1.823-5.713,3.593c-0.58,1.336,0.966,4.889,2.505,5.701c5.955,3.157,6.042,8.011,5.333,13.605     c-2.754,21.361-5.047,63.098-8.153,84.413c-0.879,6.108-3.648,11.94-5.713,17.851c-1.048,2.98-2.228,5.795,1.78,7.186     c0.71,0.117,1.296,0.426,1.677,0.249c4.703-2.116,7.874,0.139,11.105,3.327c0.761,0.768,3.881,0.512,4.665-0.396     c1.34-1.509,3.552-4.11,2.278-5.773c-7.962-13.967-4.819-46.702-3.875-59.986c0.945-13.37,2.842-26.699,4.988-39.953     c0.835-5.236,2.974-10.442,5.406-15.213C301.091,203.108,300.109,200.594,293.898,199.679z" data-original="#F7F1E6"/>
			<path style="fill:#F7F1E6;" d="M290.55,149.236c-1.691-13.299-2.41-26.747-2.878-40.151c-0.184-5.318,0.893-10.837,2.344-15.982     c1.743-6.149,0.285-8.425-5.992-8.109c-2.256,0.115-4.57-1.079-6.87-1.681c-1.934-0.502-4.11-1.775-5.744-1.401     c2.183-6.03,2.001-10.965-0.563-14.662c-3.597-5.159-10.541-5.934-14.357-5.934c-1.208,0-1.985,0.074-1.985,0.074     c-0.154,0.022-0.307,0.043-0.454,0.077c-2.491,0.59-24.567,5.969-29.813,17.309c-0.776,1.667-1.098,3.663-1.098,5.859     c-1.231-0.106-2.417-0.165-3.589-0.165c-4.219,0-7.808,0.733-10.607,2.129v-3.367c0-3.04-1.42-5.732-3.611-7.478     c0.491-0.989,0.784-2.077,0.784-3.242v-3.878c0-0.637-0.162-1.246-0.425-1.783c2.271-1.642,3.75-4.281,3.75-7.277v-1.342     c0-1.453,0.55-9.504-7.53-10.111c-5.805,0-13.672,0-13.672,0c-2.332,0-4.229,1.896-4.229,4.245c0,1.688,0.996,3.142,2.427,3.828     c0.781,0.944,14.028,0.277,14.028,0.277c0.271,0,0.487,0.216,0.487,0.479v2.624c0,0.271-0.216,0.483-0.487,0.483H189.68     c-2.333,0-4.231,1.896-4.231,4.245c0,2.348,1.891,4.244,4.231,4.244h7.943c0,0.029-0.014,0.059-0.014,0.082v2.805h-6.142     c-1.839,0-3.399,1.193-3.984,2.837c-3.623,1.342-6.227,4.827-6.227,8.947v3.18c-2.736-1.244-6.135-1.92-10.127-1.92     c-2.699,0-5.534,0.338-8.42,0.939c0.081-2.506-0.227-4.772-1.073-6.626c-5.252-11.34-27.326-16.727-29.824-17.309     c-0.158-0.033-0.314-0.063-0.451-0.078c0,0-0.779-0.072-1.974-0.072c-3.823,0-10.785,0.773-14.378,5.933     c-2.571,3.723-2.75,8.698-0.494,14.796c0.092,0.243,0.216,0.474,0.359,0.707c-0.538-0.345-1.11-0.614-1.633-0.795     c-1.659-0.548-3.937,0.832-5.956,1.355c-2.303,0.602-4.622,1.795-6.878,1.682c-6.277-0.322-7.742,1.959-6.01,8.108     c1.472,5.145,2.552,10.673,2.354,15.983c-0.48,13.404-1.183,26.852-2.871,40.15c-1.659,13.227-0.937,26.014-11.445,38.174     c-1.597,1.369,0.073,4.365,1.102,6.111c0.593,1.019,3.607,1.883,4.508,1.283c3.78-2.498,7.329-4.088,11.537-1.096     c0.352,0.238,0.981,0.06,1.685,0.085c4.223-0.608,3.601-3.577,3.143-6.713c-0.875-6.189-2.442-12.46-2.128-18.62     c1.117-21.503,2.955-42.972,4.424-64.459c0.399-5.625,1.403-10.389,7.867-12.324c1.659-0.495,3.885-3.678,3.57-5.109     c-0.007-0.051-0.036-0.096-0.051-0.143l9.347,10.519l6.9,10.764c-0.077,1.356,0.081,2.707,0.539,4.011     c0.205,0.571,0.49,1.137,0.779,1.667c-11.115,7.716-16.378,17.477-13.463,25.585c1.03,2.899,3.011,5.304,5.739,7.146     c-6.032,6.406-8.332,13.354-6.175,19.389c1.103,3.063,3.235,5.566,6.211,7.464c-6.021,6.385-8.369,13.391-6.211,19.403     c2.161,6.011,8.222,9.94,17.089,11.065c0.037,0,0.082,0,0.114,0.008c-3.593,6.782-4.022,13.26-1.007,18.227     c2.963,4.889,8.694,7.517,16.261,7.517c0.887,0,1.77-0.03,2.685-0.106c7.801-0.59,16.631-3.688,24.912-8.714     c1.971-1.194,3.831-2.498,5.611-3.849c0.051,0.007,0.117,0.021,0.172,0.021c0,0,13.861,0.017,15.679,0.017     c1.817,0,2.317,1.584,2.317,2.402s0.012,2.055,0.012,2.055c0,1.41-1.142,2.542-2.542,2.542l-14.967-0.019     c-0.295,0-0.592,0.032-0.884,0.091c-0.845,0.153-1.601,0.534-2.234,1.065c-0.066,0.053-0.133,0.105-0.197,0.161     c-0.103,0.098-0.199,0.199-0.294,0.305c-0.141,0.151-0.271,0.308-0.391,0.475c-0.033,0.046-0.063,0.095-0.094,0.144     c-0.128,0.196-0.24,0.398-0.332,0.612c-0.063,0.137-0.111,0.278-0.161,0.422c-0.018,0.061-0.041,0.119-0.056,0.181     c-0.139,0.454-0.236,0.925-0.236,1.424c0,2.692,2.185,4.877,4.878,4.877c0.034,0,0.064-0.01,0.098-0.01     c0.098,0.006,0.193,0.022,0.292,0.022h13.676c0.959,0,1.743,0.786,1.743,1.757v1.699c0,0.97-0.777,1.76-1.743,1.76h-12.355     c-0.107-0.009-0.208-0.034-0.318-0.034c-2.667,0-4.83,2.164-4.83,4.831c0,2.668,2.163,4.83,4.83,4.83     c0.119,0,0.229-0.027,0.346-0.036c0.038,0.002,0.072,0.014,0.11,0.014h10.785c0.268,0,0.48,0.228,0.48,0.495v1.344     c0,0.279-0.212,0.493-0.48,0.493h-10.785c-2.341,0-4.231,1.891-4.231,4.238c0,2.349,1.883,4.244,4.231,4.244h7.951     c0,0.042-0.015,0.063-0.015,0.086v2.806h-6.146c-2.347,0-4.245,1.896-4.245,4.243c0,2.341,1.898,4.238,4.245,4.238h7.222     c4.099,0,7.409-3.333,7.409-7.417v-3.878c0-0.637-0.161-1.245-0.417-1.783c2.277-1.638,3.75-4.278,3.75-7.277v-1.345     c0-1.439-0.373-2.792-0.973-3.988c2.241-1.891,3.691-4.71,3.691-7.869v-1.701c0-2.215-0.718-4.255-1.905-5.926     c1.693-1.567,2.923-3.655,3.398-6.011c6.718,3.377,13.618,5.462,19.851,5.941c0.916,0.078,1.809,0.105,2.681,0.105     c7.574,0,13.294-2.625,16.261-7.514c3.033-4.959,2.586-11.448-1.01-18.229c0.043-0.006,0.095-0.006,0.131-0.006     c8.842-1.125,14.914-5.057,17.083-11.064c2.153-6.016-0.198-13.013-6.211-19.403c2.974-1.898,5.105-4.411,6.211-7.465     c2.153-6.027-0.14-12.982-6.175-19.39c2.732-1.845,4.71-4.246,5.75-7.145c2.901-8.108-2.359-17.87-13.478-25.586     c0.308-0.535,0.572-1.09,0.776-1.666c1.056-2.948,0.66-6.129-0.923-9.24l3.552-5.535l8.036-9.045     c0.572,1.505,2.138,3.406,3.384,3.771c6.453,1.934,7.471,6.698,7.867,12.326c1.464,21.486,3.303,42.956,4.424,64.456     c0.322,6.16-1.26,12.425-2.131,18.616c-0.462,3.135-1.077,6.117,3.135,6.715c0.71-0.03,1.34,0.149,1.677-0.082     c4.219-2.992,7.779-1.402,11.559,1.096c0.908,0.602,3.918-0.264,4.498-1.282c1.018-1.75,2.709-4.735,1.113-6.115     C291.437,175.245,292.184,162.447,290.55,149.236z M161.629,92.592c3.278-0.886,6.501-1.352,9.479-1.352     c5.295,0,9.254,1.509,10.098,3.857c0.652,1.823-0.488,4.553-3.07,7.288c-3.179,3.362-8.211,6.446-13.814,8.463     c-3.629,1.306-7.278,2.063-10.684,2.315C156.542,107.367,159.919,99.658,161.629,92.592z M142.222,120.077l1.007,1.519     c0.622,1.008,1.747,1.615,2.941,1.615c0.029,0,0.059,0,0.073,0c1.231-0.028,2.348-0.692,2.948-1.746     c0.217-0.371,0.495-0.857,0.81-1.436c0.45,0.018,0.879,0.048,1.336,0.048c4.805,0,10.08-0.986,15.255-2.836     c4.229-1.516,8.108-3.52,11.394-5.844c3.636,0.891,6.541,2.841,7.291,4.943c1.981,5.512-7.435,15.862-22.997,21.451     c-7.643,2.739-15.609,3.855-21.857,3.063c-5.087-0.631-8.647-2.508-9.541-5.005C129.652,132.415,133.26,125.88,142.222,120.077z      M137.541,149.742c0.579,0.102,1.121,0.208,1.688,0.29c1.74,0.212,3.542,0.322,5.402,0.322c6.487,0,13.68-1.318,20.763-3.86     c5.684-2.039,10.745-4.609,14.994-7.533c1.992,0.766,3.78,1.979,4.468,3.911c1.982,5.52-7.438,15.861-22.997,21.46     c-7.644,2.741-15.61,3.861-21.872,3.063c-5.076-0.646-8.64-2.527-9.541-5.009C129.323,159.206,132.143,154.269,137.541,149.742z      M139.995,194.27c-5.076-0.639-8.64-2.505-9.541-5.004c-1.153-3.259,1.811-8.296,7.38-12.862     c0.336,0.044,0.652,0.129,1.007,0.173c1.725,0.22,3.531,0.322,5.362,0.322c6.519,0,13.697-1.325,20.783-3.861     c5.553-1.995,10.501-4.5,14.688-7.328c2.731,0.93,4.581,2.347,5.189,4.044c1.981,5.519-7.438,15.861-22.997,21.45     C154.224,193.94,146.257,195.061,139.995,194.27z M176.989,212.483c-6.94,4.215-14.514,6.906-20.784,7.381     c-5.132,0.383-8.988-0.732-10.375-2.993c-1.718-2.842-0.06-8.011,4.164-13.448c4.853-0.539,9.946-1.718,14.993-3.528     c8.491-3.036,15.559-7.3,20.635-12.065c-0.465,4.314,0.838,9.195,3.945,14.28C186.259,205.876,181.901,209.498,176.989,212.483z      M209.442,95.105c0.85-2.34,4.806-3.856,10.094-3.856c1.422,0,2.923,0.135,4.454,0.336c1.538,7.029,4.878,14.823,7.823,20.818     c-1.817-0.406-3.648-0.9-5.48-1.554c-5.596-2.017-10.636-5.101-13.813-8.463C209.948,99.658,208.798,96.921,209.442,95.105z      M244.821,216.871c-1.392,2.261-5.245,3.376-10.357,2.993c-6.284-0.475-13.844-3.166-20.795-7.381     c-4.907-2.991-9.273-6.614-12.588-10.374c3.117-5.085,4.421-9.966,3.944-14.28c5.091,4.757,12.146,9.023,20.656,12.065     c5.033,1.811,10.13,2.989,14.979,3.528C244.894,208.86,246.535,214.038,244.821,216.871z M260.189,189.258     c-0.886,2.499-4.454,4.367-9.537,5.003c-6.248,0.793-14.21-0.321-21.857-3.064c-15.573-5.589-24.985-15.933-23.015-21.452     c0.616-1.693,2.476-3.105,5.215-4.043c4.189,2.836,9.112,5.333,14.679,7.33c7.076,2.533,14.276,3.861,20.773,3.861     c1.846,0,3.647-0.104,5.375-0.324c0.345-0.045,0.66-0.128,1.004-0.171C258.387,180.964,261.361,185.999,260.189,189.258z      M260.189,162.385c-0.893,2.481-4.468,4.363-9.544,5.009c-6.248,0.799-14.218-0.328-21.857-3.063     c-15.58-5.599-24.985-15.94-23.022-21.46c0.711-1.923,2.49-3.135,4.49-3.908c4.242,2.915,9.296,5.491,14.98,7.53     c7.105,2.542,14.283,3.86,20.773,3.86c1.854,0,3.67-0.104,5.392-0.322c0.585-0.082,1.128-0.188,1.707-0.29     C258.519,154.269,261.331,159.206,260.189,162.385z M259.75,135.858c-0.895,2.488-4.446,4.365-9.538,5.002     c-6.255,0.795-14.209-0.329-21.857-3.062c-15.557-5.587-24.984-15.938-23-21.452c0.748-2.102,3.664-4.05,7.297-4.943     c3.281,2.318,7.164,4.33,11.39,5.844c3.919,1.404,7.889,2.302,11.698,2.657c0.352,0.63,0.644,1.169,0.879,1.566     c0.6,1.056,1.728,1.718,2.944,1.748c0.03,0,0.059,0,0.088,0c1.201,0,2.3-0.601,2.959-1.615l1.216-1.882     c1.011-0.167,2.029-0.381,2.967-0.638C256.965,125.108,261.082,132.211,259.75,135.858z" data-original="#F7F1E6"/>
		</g>
	</g>
</g></g> </svg>
